<svg xmlns="http://www.w3.org/2000/svg" xmlns:xlink="http://www.w3.org/1999/xlink" viewBox="0 0 1155.08 1367.47"><defs><pattern id="New_Pattern" data-name="New Pattern" width="263.25" height="263.25" patternTransform="translate(-529.17 -211.42) scale(1.25)" patternUnits="userSpaceOnUse" viewBox="0 0 263.25 263.25"><rect width="263.25" height="263.25" style="fill:none"/><path d="M276.07,285.48a59.89,59.89,0,0,1-4.18-10.31,39.3,39.3,0,0,1-.36-16.93,21.77,21.77,0,0,1,1.72-6c1.26-2.53,3.37-4.45,3.94-7.42.26-1.36.2-3,1-3.93,2.47-3.08,10.71,7.13,12.1,9.74,5.65,10.69-2.71,18-2.47,27.79.17,6.56,3.71,13.54,3.48,20,.09-2.44,1.24-4.13.83-6.75s-1.08-5.48-1.37-8.26a23,23,0,0,1,.12-7.87c.65-2.56,2.17-4.52,3.34-6.73s2-4.59,3.52-6.37c2.21-2.57,5.81-3.75,6.9-7.26l3.54,6.53c1.6,2.95,3.27,6.13,3.29,9.23,0,4.74-3.68,7.44-5.16,11.5-1.11,3-1,6.95-2.86,9.36-2.18,2.82-6,3.14-7.6,6.65a35.36,35.36,0,0,0-1.44,3.4c-.34,1,.12,3.86-.57,4.39a1.54,1.54,0,0,1-1.09.11c-3.1-.26-5.22,2.28-7.8,3.57a3.66,3.66,0,0,1-2.14.48,9.38,9.38,0,0,1-2.26-.79c-2.34-.95-4.8-1-7-2.42-3.27-2-5.19-6.16-8-9.09a17.59,17.59,0,0,1-2.68-3,20.21,20.21,0,0,1-1.31-3.28c-1.2-3.19-3.53-5.87-5.72-8.49-.39-.46-.82-1.18-.52-1.56.18-.23.54-.18.85-.1,3.73,1,6.88,5,10.57,6.54a15.47,15.47,0,0,1,2.59,1.12c1.93,1.26,2.86,3.66,4.35,5.43s3.1,2.76,4.23,4.83a2.8,2.8,0,0,0,.48.73,2.21,2.21,0,0,0,.55.37,13.69,13.69,0,0,0,3.21,1.5c.84.2,1-.53,2.08.15-2.46-5.39-5.17-10.71-7.75-16Z" style="fill:#fdbdbd"/><path d="M210.15,193a47.66,47.66,0,0,1,16.66,22.84,1.5,1.5,0,0,1,.11.78c-.15.7-1.11.81-1.82.66a13.11,13.11,0,0,1-4.16-1.92,50,50,0,0,1-15.5-15.62c-1.08-1.71-5.25-7.44-4.05-9.48C203.06,187.4,208.47,191.76,210.15,193Z" style="fill:#fdc5a9"/><path d="M205.51,196.34a47.6,47.6,0,0,1,25.85,11.45,1.49,1.49,0,0,1,.49.62c.22.68-.56,1.26-1.25,1.48a13.22,13.22,0,0,1-4.57.42,50.07,50.07,0,0,1-21.23-5.78c-1.79-.94-8.26-3.82-8.25-6.18C196.57,195,203.44,196.1,205.51,196.34Z" style="fill:#fdc5a9"/><path d="M203.16,201.55a47.63,47.63,0,0,1,28.11-3,1.43,1.43,0,0,1,.73.29c.54.48.15,1.37-.33,1.91a13,13,0,0,1-3.75,2.64A50,50,0,0,1,206.64,209c-2,.07-9.06.82-10.23-1.23C194.77,204.89,201.25,202.38,203.16,201.55Z" style="fill:#fdc5a9"/><path d="M203.73,207.23a47.77,47.77,0,0,1,22.84-16.66,1.5,1.5,0,0,1,.78-.11c.71.15.82,1.11.66,1.82a12.9,12.9,0,0,1-1.92,4.16A50.05,50.05,0,0,1,210.47,212C208.76,213,203,217.19,201,216,198.13,214.32,202.5,208.91,203.73,207.23Z" style="fill:#fdc5a9"/><path d="M207.07,211.87A47.68,47.68,0,0,1,218.52,186a1.42,1.42,0,0,1,.62-.49c.68-.22,1.26.55,1.48,1.24a13.22,13.22,0,0,1,.42,4.57,49.93,49.93,0,0,1-5.78,21.23c-.94,1.79-3.82,8.26-6.18,8.25C205.77,220.81,206.84,213.94,207.07,211.87Z" style="fill:#fdc5a9"/><path d="M212.28,214.22a47.71,47.71,0,0,1-3-28.11,1.47,1.47,0,0,1,.29-.73c.49-.54,1.37-.15,1.91.33a13.42,13.42,0,0,1,2.65,3.75,50.13,50.13,0,0,1,5.61,21.28c.08,2,.82,9.07-1.23,10.23C215.62,222.61,213.11,216.13,212.28,214.22Z" style="fill:#fdc5a9"/><circle cx="214.28" cy="204.1" r="7.1" style="fill:#fd875e"/><path d="M187.16,156.51l-.46.25a11.79,11.79,0,0,1-5.17,3.78,39.86,39.86,0,0,1-14.69,3.07,73.4,73.4,0,0,1-7.85-.12,22.66,22.66,0,0,1-3.76-.6c-.62-.16-1.24-.34-1.84-.55a6.66,6.66,0,0,1-1.19-.51L151,163.89c-.26.61-.51,1.22-.78,1.83a.2.2,0,0,1-.21.13.49.49,0,0,1-.34.09.57.57,0,0,1-.74-.67,45,45,0,0,1,5.3-10.8c.05-.34.09-.69.13-1,.05-.49.12-1,.19-1.46a45.74,45.74,0,0,1,1.39-7,27.56,27.56,0,0,1,8.6-12.9,32.65,32.65,0,0,1,14.57-7.47.44.44,0,0,1,.56.43,30.58,30.58,0,0,1-1.38,8.75,32.69,32.69,0,0,1-8.07,13.41c-4.09,4.08-9.2,6.64-14.63,8.44l-.09.21c-.24.47-.5.94-.76,1.41l-.37.66a21.89,21.89,0,0,1,3.34-2.2,28.49,28.49,0,0,1,13.95-3.19,40.72,40.72,0,0,1,7.86.9,31.22,31.22,0,0,1,7.56,2.38.22.22,0,0,1,.13.24A.28.28,0,0,1,187.16,156.51Zm-17.1-10.19c-.42.43-.84.84-1.29,1.24a33.52,33.52,0,0,1-7.59,5.15h0c1.13-.56,2.24-1.17,3.31-1.84A29.69,29.69,0,0,0,170.06,146.32Zm8.23-17.08c-.58,1.43-1.21,2.83-1.92,4.19a52,52,0,0,1-17.84,19.63,31.77,31.77,0,0,0,15.38-12.76A33,33,0,0,0,178.29,129.24Zm.17-2.12-.65.75c-.45.61-.93,1.21-1.39,1.8-.8,1-1.59,2.06-2.41,3.07-2.89,3.63-5.85,7.2-8.84,10.74q-2.28,2.69-4.59,5.35a44.55,44.55,0,0,0-3.35,4.19,49.61,49.61,0,0,0,4.85-3.4,52.58,52.58,0,0,0,16.38-22.5ZM158,150.34c.42-.58.83-1.16,1.27-1.72,2-2.57,4.14-5,6.27-7.44,2.41-2.75,4.8-5.52,7.21-8.27l1.14-1.39c.74-.91,1.49-1.81,2.24-2.71.53-.66,1.06-1.34,1.62-2a54.39,54.39,0,0,0-5.13,3.8,57.75,57.75,0,0,0-10.13,11,59.08,59.08,0,0,0-3.92,6.34c-.59,1.11-1.14,2.23-1.66,3.38-.17.37-.32.74-.48,1.11A18.92,18.92,0,0,1,158,150.34Zm-2.65,3.8a25.17,25.17,0,0,1,1.35-3.43c.58-1.3,1.22-2.57,1.9-3.82A58.42,58.42,0,0,1,178,126a63.05,63.05,0,0,0-7.37,3.53,35.66,35.66,0,0,0-3.4,2.18,31.83,31.83,0,0,0-7.44,8.49,32.5,32.5,0,0,0-3.29,7.55,32.82,32.82,0,0,0-.88,3.93C155.45,152.49,155.37,153.32,155.3,154.14ZM181.25,157c-1,0-1.95,0-2.92,0a99.44,99.44,0,0,0-13.13.92,59.1,59.1,0,0,0-6.44,1.27l-1,.29-.25.1c.83-.16,1.66-.3,2.49-.43,4.17-.61,8.37-.89,12.56-1.22q3.15-.25,6.3-.6C179.65,157.23,180.45,157.11,181.25,157ZM155,159.34l1-.46a29.08,29.08,0,0,1,3.24-1.16A56.37,56.37,0,0,1,172,155.81q3.58-.21,7.16-.23c.79,0,1.57,0,2.36,0l-.68-.13c-1-.14-1.93-.27-2.89-.37-2.36-.25-4.71-.44-7.08-.52a40.06,40.06,0,0,0-5.14.11q-.79.15-1.56.36a28.39,28.39,0,0,0-6.31,2.49A25.28,25.28,0,0,0,155,159.34Zm29.66-2.28h-.14a.13.13,0,0,1-.1.11l-.43.05a34.72,34.72,0,0,1-5.69,1c-4.19.53-8.42.78-12.63,1.17-2.11.2-4.22.44-6.32.78-1,.17-2,.35-3.05.57l-1.29.32.46.1a43.08,43.08,0,0,0,4.53.55,49.58,49.58,0,0,0,13.8-1A51.19,51.19,0,0,0,184.67,157.06Z" style="fill:#6e9488"/><path d="M213.31,105A16,16,0,0,1,219,98.43c2.53-1.46,6-1.56,8.16.45,3.94,3.73.83,9.36-2.32,12.34s-6.85,5-10.45,7.09l-7.52,4.35c1.72-3.55,2.34-7.64,3.7-11.34A51.46,51.46,0,0,1,213.31,105Z" style="fill:#fd875e"/><path d="M193.83,100.2c-.39-4.45-.16-9.44,1.9-13.5,1.81-3.55,6.59-7.56,10.75-5.62,3.73,1.74,5.31,6.38,5.4,10.24a28.2,28.2,0,0,1-2.55,11.08c-1.53,3.78-3.06,7.6-4.64,11.34-1.31,3.12-2.13,6.81-4.7,9.21A69.12,69.12,0,0,1,193.83,100.2Z" style="fill:#fd875e"/><path d="M182.39,114.73a41.78,41.78,0,0,1-6.83-6.32A26.13,26.13,0,0,1,170,96.19a6.12,6.12,0,0,1,5.21-7.4,9.3,9.3,0,0,1,7.24,2.66A20.9,20.9,0,0,1,186.83,98a60,60,0,0,1,5.74,23C188.53,120,185.63,117.23,182.39,114.73Z" style="fill:#fd875e"/><path d="M219.51,105.24c-3.62,4-6.76,8.39-10,12.69l-5,6.61c-1.33,1.76-2.8,3.5-4.06,5.34q.31-7.11.61-14.23c.24-5.89.42-11.78.68-17.66,0-.54-.81-.53-.83,0-.46,10.26-1.06,20.51-1.72,30.76-.43-.59-.88-1.17-1.31-1.75l-2.68-3.66c-1.89-2.58-3.79-5.16-5.65-7.76s-3.53-5-5.21-7.6-3-5.34-4.95-7.63c-.62-.74-1.61.21-1.25,1,1.24,2.7,3.26,5.24,4.91,7.71q2.64,4,5.48,7.76c1.87,2.5,3.75,5,5.63,7.46l2.73,3.64a34.18,34.18,0,0,0,2.17,2.79c-.62,9.61-1.29,19.21-1.92,28.81q-.28,4.27-.58,8.55c-.2,2.91-.63,5.9-.58,8.82,0,.94,1.56,1.24,1.72.23.38-2.43.38-4.94.54-7.4l.48-7.72q.48-7.71.91-15.43c.27-4.73.49-9.46.71-14.19a.63.63,0,0,0,.48-.23,78.67,78.67,0,0,0,4.8-6.34l4.92-6.63c3.28-4.4,6.69-8.75,9.54-13.44C220.35,105.34,219.82,104.9,219.51,105.24Z" style="fill:#fdc5a9"/><path d="M70.38,141.6a7.61,7.61,0,0,1,3.76-1.53,4.24,4.24,0,0,1,4.27,4,5.24,5.24,0,0,1-2.3,4.08A12.45,12.45,0,0,1,71.64,150c-1.87.46-3.77.8-5.67,1.07-1.46.21-4.06,1-5.45.56a10,10,0,0,1,1.8-2.49,34.23,34.23,0,0,1,2.43-2.81A33.82,33.82,0,0,1,70.38,141.6Z" style="fill:#fdc5a9"/><path d="M67.61,135.53A14.05,14.05,0,0,1,64.84,139a36.16,36.16,0,0,1-3.52,3c-1.51,1.16-3.51,3.16-5.46,3.49A31.26,31.26,0,0,1,59,134.73c1.22-2.17,3.41-4.58,6.1-4.62a2.9,2.9,0,0,1,2.75,1.82A4.22,4.22,0,0,1,67.61,135.53Z" style="fill:#fd875e"/><path d="M82.16,150a8.45,8.45,0,0,1,3.5.44,3.23,3.23,0,0,1,2.1,2.62,3.08,3.08,0,0,1-1.21,2.47A6.35,6.35,0,0,1,84,156.66a19.66,19.66,0,0,1-8.92-.36c-1.58-.38-3.13-.85-4.67-1.37-1.24-.43-3.12-.79-4.13-1.57,2.12-1.21,5.08-1.79,7.46-2.31A45.34,45.34,0,0,1,82.16,150Z" style="fill:#fd875e"/><path d="M51.64,115.41a13,13,0,0,1,2.92-4,6.35,6.35,0,0,1,4.58-1.71,4.25,4.25,0,0,1,3.76,2.86,6,6,0,0,1-1,4.58c-3.56,6-10,9.62-15.09,14.38.51-.47.72-2.77.85-3.42.31-1.44.64-2.87,1-4.3A40.62,40.62,0,0,1,51.64,115.41Z" style="fill:#fdc5a9"/><path d="M31,111.29c0-.43,0-.87,0-1.31.07-2.07,1-4.59,3.41-4.85A3.82,3.82,0,0,1,37.88,107c1.22,1.87,1.11,4.21,1,6.34a45.89,45.89,0,0,1-1.52,8.2,11.06,11.06,0,0,1-1,3.38c-1.69-1.89-2.65-4.51-3.57-6.84A22.49,22.49,0,0,1,31,111.29Z" style="fill:#fdc5a9"/><path d="M27.36,128.53c1.15.15,2.31.26,3.46.42.92.12,2.44.73,3.3.5-1.26-2-1.78-4.24-2.9-6.3a25.67,25.67,0,0,0-4.5-6,6.81,6.81,0,0,0-3.83-2.22,5,5,0,0,0-4,1.61,6.15,6.15,0,0,0-1.81,4.19,7.1,7.1,0,0,0,3.54,5.77A16.5,16.5,0,0,0,27.36,128.53Z" style="fill:#fd875e"/><path d="M40.12,112.86a10.65,10.65,0,0,1,1.72-3.65,5.18,5.18,0,0,1,3.38-2,3.44,3.44,0,0,1,3.41,1.72c.81,1.64-.12,3.63-1.33,5-2.58,2.94-6.32,4.65-8.42,8a26.45,26.45,0,0,1,.35-3.94A24.07,24.07,0,0,1,40.12,112.86Z" style="fill:#fd875e"/><path d="M20.32,151.46a15,15,0,0,1,.52-5,6.23,6.23,0,0,1,3.09-3.82,4,4,0,0,1,4.63.84,4.81,4.81,0,0,1,.77,3.85,18.45,18.45,0,0,1-2.34,5.6q-2.94,5.4-5.42,11A98.21,98.21,0,0,1,20.32,151.46Z" style="fill:#fd875e"/><path d="M10.66,151.26a11.3,11.3,0,0,1-.42-4.79,5.72,5.72,0,0,1,2.5-4,3.86,3.86,0,0,1,4.51.3,6,6,0,0,1,1.43,4.11c.36,5.51.32,12-1,17.41-.77-2-3-4.3-4.08-6.2A28.92,28.92,0,0,1,10.66,151.26Z" style="fill:#fdc5a9"/><path d="M34.47,179.08c1.79-2.92,4-5.42,7.14-6.81a6.68,6.68,0,0,1,4.39-.48c3.45.94,3.39,4.69,1.46,7.12A12.52,12.52,0,0,1,43.29,182c-4.47,2.29-9.07,5.74-13.95,7,.25-1.2,1.3-2.31,1.87-3.44C32.3,183.43,33.18,181.18,34.47,179.08Z" style="fill:#fd875e"/><path d="M76.34,152.19c-4.21.36-8.42.72-12.6,1.26-2,.26-4,.56-6,.94-1.35.26-2.73.54-4.06.93,3.08-1.5,6.21-2.91,9.39-4.17,1.56-.62,3.14-1.21,4.72-1.76l2.28-.78a15.47,15.47,0,0,0,2.39-.86c.4-.21.24-1-.25-.9a20.78,20.78,0,0,0-4.3,1.34c-1.45.5-2.88,1-4.31,1.59q-4.14,1.62-8.18,3.51c-2.33,1.09-4.62,2.27-6.89,3.49,2.14-2.93,4.12-6,6.12-9q3.95-6,7.89-11.93c.35-.54-.51-1-.87-.51-2.59,3.95-5.16,7.92-7.75,11.88-2.22,3.41-4.51,6.81-6.66,10.28q-3.93,2.19-7.72,4.63c-2.55,1.64-5.55,3.15-7.64,5.37l-.45.52a155.08,155.08,0,0,1,13.37-32q2.41-4.43,5-8.73c1.77-2.9,3.66-5.72,5.48-8.59.32-.49-.45-.92-.77-.45-3.49,5-6.63,10.31-9.6,15.63-1.81,3.23-3.51,6.52-5.13,9.86-.12-1.47-.41-3-.61-4.39-.29-2-.6-4-.93-6a20.53,20.53,0,0,1-.45-3.81,18.79,18.79,0,0,1,.41-3.74,44.74,44.74,0,0,1,1.39-5.07,40,40,0,0,1,1.55-3.84c.55-1.19,1.33-2.32,1.81-3.55.13-.32-.38-.62-.59-.34a16.5,16.5,0,0,0-1.92,3.62c-.56,1.24-1.06,2.52-1.5,3.81a35.15,35.15,0,0,0-1.65,7.43c-.4-2.19-.81-4.39-1.24-6.58s-.83-4.55-1.4-6.78c-.17-.65-1.12-.37-1,.28.45,2.54,1.11,5.06,1.61,7.6s1,5.08,1.45,7.63c.17,1,.33,2,.5,2.94a17.14,17.14,0,0,0-3.63-4.38c-1.44-1.3-2.91-2.56-4.4-3.8-.11-.1-3.46-2.64-3.44-2.23.07,1.35,1.73,2.21,2.67,3,1.42,1.14,2.85,2.27,4.23,3.45,2.11,1.82,4.13,3.9,5,6.63l0,0c.11.68.23,1.36.35,2l.6,3.83c.18,1.15.31,2.33.59,3.45-.81,1.7-1.6,3.41-2.34,5.14a135.11,135.11,0,0,0-10.19,35.48,100.9,100.9,0,0,0-.88,10.56v.13q-2.78-11.8-5.58-23.59c.73-3.41,1.17-6.89,1.66-10.33q.82-5.66,1.59-11.32a.44.44,0,1,0-.86-.11q-.75,5.73-1.55,11.46c-.41,2.94-.88,5.88-1.18,8.84-.75-3.12-1.48-6.24-2.24-9.35-.43-1.77-.85-3.53-1.28-5.29A53.68,53.68,0,0,0,15,151c-.16-.44-.95-.42-.88.11a45.18,45.18,0,0,0,1.08,4.71l1.17,4.81q1.19,4.88,2.38,9.74,2.37,9.67,4.82,19.33c.74,2.93,1.47,5.87,2.21,8.8a42.28,42.28,0,0,0,.49,8c.09.48.81.34.82-.11.09-3.1-.12-6.2-.06-9.31,0-1.37.1-2.74.17-4.11a4.61,4.61,0,0,0,1.09-1.52c.41-.65.84-1.29,1.3-1.91a37.22,37.22,0,0,1,3-3.7,40.6,40.6,0,0,1,3.36-3.2,32.49,32.49,0,0,1,3.9-3c.28-.18,0-.64-.27-.46a44.7,44.7,0,0,0-4.07,2.62,34.82,34.82,0,0,0-3.66,3.31,35.83,35.83,0,0,0-3.07,3.66c-.47.65-.93,1.31-1.36,2l-.12.18c.08-1,.15-2.09.26-3.12A115.77,115.77,0,0,1,31,169.64s0,0,.05,0c-.06-.49,2.6-2.3,3-2.6,1.63-1.26,3.39-2.34,5.12-3.46a139.67,139.67,0,0,1,12.72-7.34c2-.19,3.92-.66,5.87-1s4.16-.67,6.25-.93c4.11-.51,8.24-.84,12.37-1.17C76.94,153.09,77,152.14,76.34,152.19Z" style="fill:#93ca9f"/><path d="M66.29,227.28a7.47,7.47,0,0,0-8.64-1.81,12.14,12.14,0,0,0,2.67-7.86A6.28,6.28,0,0,0,59.14,214c-1.91-2.39-5.15-2.31-7.68-.92a10.36,10.36,0,0,0-5.15,7.15,8.86,8.86,0,0,0-8.72-7.91,5.78,5.78,0,0,0-3.66,1.26,5.69,5.69,0,0,0-1.47,5.53,2.17,2.17,0,0,0,.07.24,10.35,10.35,0,0,0,1.72,3.39c-2.25-.3-4.52,0-6,1.92a3.57,3.57,0,0,0,.09,4.55,7,7,0,0,0,2,1.4,16.71,16.71,0,0,0,2.44,1.1c.44.15.89.29,1.35.4-3.17.61-6.19,2.37-6.66,5.43-.53,3.5,3.06,6.68,6.59,6.54s6.58-2.8,8.17-6c-1.41,2.79-1.38,7.3,1.06,9.66,2,2,5.74.65,7.19-1.49A8.07,8.07,0,0,0,51.3,240a10,10,0,0,0,1.76,3.68,3,3,0,0,0,5.3-.64c1.27-2.84-.33-6.1-2.12-8.64a7.56,7.56,0,0,0,10.22.3,5.14,5.14,0,0,0,1.58-2.6A5.55,5.55,0,0,0,66.29,227.28Z" style="fill:#fdbe8f"/><path d="M45.57,227.85a2.31,2.31,0,0,0-.56-1l-.45-.34a2.14,2.14,0,0,0-1.1-.3,1.62,1.62,0,0,0-.84.19,1.66,1.66,0,0,0-.71.45,1.72,1.72,0,0,0-.45.71,1.62,1.62,0,0,0-.19.84l.08.58a2.21,2.21,0,0,0,.56,1c.15.11.3.22.44.34a2.18,2.18,0,0,0,1.11.3,1.62,1.62,0,0,0,.84-.19,1.92,1.92,0,0,0,1.16-1.16,1.62,1.62,0,0,0,.19-.84C45.62,228.24,45.59,228,45.57,227.85Z" style="fill:#fd875e"/><path d="M48.47,223.33a1.18,1.18,0,0,0,0,2.36A1.18,1.18,0,0,0,48.47,223.33Z" style="fill:#fd875e"/><path d="M51.35,229.16v-.06l-.07-.16a1.18,1.18,0,0,0-.28-.43l-.13-.1a.66.66,0,0,0-.29-.17l-.17-.07h-.06L50,228.1l-.19,0a.66.66,0,0,0-.37.1.9.9,0,0,0-.47.3s-.22.29-.23.29,0,.09-.05.13l-.14.33a1.07,1.07,0,0,0,0,.56.74.74,0,0,0,.1.35,1.09,1.09,0,0,0,.29.45l.28.22.33.14a1,1,0,0,0,.56,0,1,1,0,0,0,.52-.16l.11-.05h0c.06,0,0,0,.15-.12a.75.75,0,0,0,.27-.26l.11-.15c0-.11.1-.23.14-.34l0-.2a.62.62,0,0,0,0-.38A.77.77,0,0,0,51.35,229.16Z" style="fill:#fd875e"/><path d="M54.21,229.79a1.25,1.25,0,0,0,0,2.5A1.25,1.25,0,0,0,54.21,229.79Z" style="fill:#fd875e"/><path d="M52.13,235.57a1.72,1.72,0,0,0-.43-.75l-.35-.26a1.69,1.69,0,0,0-.85-.23,1.32,1.32,0,0,0-.65.14,1.5,1.5,0,0,0-.9.9,1.32,1.32,0,0,0-.14.65l.06.45a1.66,1.66,0,0,0,.43.75l.35.26a1.67,1.67,0,0,0,.85.23,1.32,1.32,0,0,0,.65-.14,1.5,1.5,0,0,0,.9-.9,1.32,1.32,0,0,0,.14-.65Z" style="fill:#fd875e"/><path d="M47.89,234.4a1.46,1.46,0,0,0-1.8-1,1.44,1.44,0,0,0-.64.38,1.26,1.26,0,0,0-.3.46,1.05,1.05,0,0,0-.24.44,1.23,1.23,0,0,0,0,.66,1.22,1.22,0,0,0,.31.54l0,0a1.39,1.39,0,0,0,.27.21,1.13,1.13,0,0,0,.2.09.93.93,0,0,0,.2.09,2.87,2.87,0,0,0,.41,0h0l.38,0,.06,0h0l.33-.14h0a2.18,2.18,0,0,0,.34-.26,1.51,1.51,0,0,0,.37-.65A1.47,1.47,0,0,0,47.89,234.4Z" style="fill:#fd875e"/><path d="M42.16,234.46a1.33,1.33,0,0,0-.32-.55l-.26-.19a1.15,1.15,0,0,0-.63-.17h-.19a1,1,0,0,0-.49.1,1.15,1.15,0,0,0-.66.66,1,1,0,0,0-.1.49c0,.11,0,.22,0,.33a1.33,1.33,0,0,0,.32.55l.26.19a1.15,1.15,0,0,0,.63.17H41a.85.85,0,0,0,.48-.1,1,1,0,0,0,.41-.26.94.94,0,0,0,.25-.4.89.89,0,0,0,.11-.48Z" style="fill:#fd875e"/><path d="M38.38,229.25a1.59,1.59,0,0,0,0,3.17A1.59,1.59,0,0,0,38.38,229.25Z" style="fill:#fd875e"/><path d="M227.62,144.12a12.86,12.86,0,0,1,.2-6.69c.79-2.16,3-4,5.28-3.45,3.1.72,3.77,4.79,3.78,8a16.24,16.24,0,0,1,4.92-4.88c2-1.1,4.87-1.14,6.48.54,2.42,2.51.66,6.82-2,9.1,2.44-.42,5.12-.32,7.15,1.11s3,4.49,1.53,6.48c-1.65,2.23-5,2-7.73,1.45,2.45.46,5.57,8.77,4,10.78-2.61,3.3-9.59-.45-12-2.31-.11,2.43-.25,5-1.53,7.05s-4.1,3.4-6.22,2.21c-2.52-1.42-2.41-5-2-7.9a14.62,14.62,0,0,1-4,3.63,5,5,0,0,1-5.16-.07c-1.81-1.33-2-4.11-1-6.12a14.29,14.29,0,0,1,4.32-4.7c-8.56.24-15.66-8-7.44-15.18C219.28,140.5,225.92,139.82,227.62,144.12Z" style="fill:#93ca9f"/><path d="M234.37,137.65A1.89,1.89,0,0,1,233,139a1.63,1.63,0,0,1-.54,0c-.09.29-.19.58-.27.87-.19.73-.36,1.47-.5,2.21a27,27,0,0,0-.46,4.49,31.78,31.78,0,0,0,1.06,9.11.26.26,0,0,1-.49.14,27,27,0,0,1-1.55-9.25,28.81,28.81,0,0,1,.44-4.64c.13-.79.3-1.57.5-2.34.09-.33.17-.68.26-1a2.55,2.55,0,0,1-.26-.3A1.54,1.54,0,0,1,231,137a1.72,1.72,0,0,1,.07-.21,1.58,1.58,0,0,1,.44-1,1.77,1.77,0,0,1,.71-.42,1.56,1.56,0,0,1,.83,0,1.68,1.68,0,0,1,1.17.83A2,2,0,0,1,234.37,137.65Z" style="fill:#fd875e"/><path d="M239.93,142.36s0,0,0-.06l0-.07Z" style="fill:#fd875e"/><path d="M242.47,141.19a1.17,1.17,0,0,0-.15-.39,2.27,2.27,0,0,0-.18-.25l-.09-.08a1.5,1.5,0,0,0-.59-.33,1,1,0,0,0-.35,0,.79.79,0,0,0-.34.06,1,1,0,0,0-.28.12,1.5,1.5,0,0,0-.29.27,1.06,1.06,0,0,0-.21.44,2.45,2.45,0,0,0,0,.27,1.58,1.58,0,0,0-.13.26.75.75,0,0,0-.05.36,1.19,1.19,0,0,0,.11.42,1.29,1.29,0,0,0,.22.35,1.76,1.76,0,0,0,.3.24l.13.05a27.76,27.76,0,0,1-1.85,6.17A30,30,0,0,1,237,152.4c-.64,1.09-1.4,2.1-2,3.21a.13.13,0,0,0,.2.15,12.59,12.59,0,0,0,2.39-3,25.2,25.2,0,0,0,1.86-3.57,28.29,28.29,0,0,0,1.83-6.09,1.37,1.37,0,0,0,.28,0,1.51,1.51,0,0,0,.49-.29,1.3,1.3,0,0,0,.26-.31,1.4,1.4,0,0,0,.16-.38A1.88,1.88,0,0,0,242.47,141.19Z" style="fill:#fd875e"/><path d="M240.3,150.49l-.29.18a1.33,1.33,0,0,0-.37-.95,1.36,1.36,0,0,0-1.63-.21A19.76,19.76,0,0,0,235.2,152a18.71,18.71,0,0,0-.28-2.22,1.33,1.33,0,0,0-2.4-.31,16.42,16.42,0,0,0-1.07,3.5c-.5-1-.91-2.07-1.31-3.11-.29-.77-1.61-1-1.79,0a8.71,8.71,0,0,0,.73,5.15,12.12,12.12,0,0,0,1.24,2.15,3.73,3.73,0,0,0,2.23,1.69c4.32.85,8.44-3,9.77-6.83A1.39,1.39,0,0,0,240.3,150.49Z" style="fill:#fdc5a9"/><path d="M150.05,95.48a2.54,2.54,0,0,1-1.34,1.16,2,2,0,0,1-1.67-.15l-.11-.09c-.18.17-.32.33-.39.39l-1.36,1.28c-.88.83-1.75,1.67-2.6,2.52a221.48,221.48,0,0,0-17.38,19.84c-.21.27-.65-.08-.47-.36,1.48-2.27,3-4.46,4.7-6.59q4.45-5.7,9.45-11,2.49-2.62,5.1-5.13c.71-.69,1.42-1.44,2.18-2.08v0a2.15,2.15,0,0,1,.09-1.46,1.64,1.64,0,0,1,.36-.5l0,0a1.49,1.49,0,0,1,.31-.51,1.88,1.88,0,0,1,1.88-.42,2.09,2.09,0,0,1,1.24,3.1Z" style="fill:#93ca9f"/><path d="M157.56,107.89a2,2,0,0,0-3,.31.72.72,0,0,0-.28.16c-1.85,1.74-4,3.23-6,4.79l-5.82,4.57c-3.94,3.09-8,6.09-11.74,9.41-.16.14,0,.42.23.3,4.17-2.79,8.09-6,12.08-9l5.89-4.47c1.65-1.26,3.27-2.59,5-3.78a2.26,2.26,0,0,0,1.62,1.64.68.68,0,0,0,.42,0l.16,0A2.32,2.32,0,0,0,157.56,107.89Z" style="fill:#93ca9f"/><path d="M117.53,111.12a43.43,43.43,0,0,1,4.42-7.5c1.74-2.39,3.44-4.85,6.18-6.2A6.12,6.12,0,0,1,133,97a3.89,3.89,0,0,1,2.54,3.86c-.84,6.79-6.21,13.92-10.13,19.38a41.45,41.45,0,0,1,16.56-13.55c2.09-.94,5.21-1.34,6.09.78.56,1.37-.3,2.88-1.16,4.09A73.77,73.77,0,0,1,135.1,124.4a35.52,35.52,0,0,1,13.7-6.88,6.43,6.43,0,0,1,3.36-.18,2.48,2.48,0,0,1,1.87,2.51,3.52,3.52,0,0,1-1.1,1.8c-5.25,5.58-11.51,10.36-18.72,13-4.62,1.66-11.16,3.34-16.05,2.16-5.64-1.38-4.89-10.13-4-14.76A44.9,44.9,0,0,1,117.53,111.12Z" style="fill:#fdbe8f"/><path d="M123.77,118.89a26.61,26.61,0,0,0-5.19,7.08,32.6,32.6,0,0,0-3,8.22c-.07.3.37.42.44.13a33.67,33.67,0,0,1,3.21-8,45.36,45.36,0,0,1,5.07-6.94C124.57,119.05,124.11,118.57,123.77,118.89Z" style="fill:#fd875e"/><path d="M130.17,120.54a96.4,96.4,0,0,1-6.24,8.14,86.39,86.39,0,0,1-7.14,7.18c-.21.19.1.48.31.31a62,62,0,0,0,7.57-7.1,56.91,56.91,0,0,0,6.27-8.08C131.24,120.49,130.5,120.08,130.17,120.54Z" style="fill:#fd875e"/><path d="M137.55,126.8a60.42,60.42,0,0,1-8.45,5.52,47.55,47.55,0,0,1-9.62,3.51c-.28.07-.16.47.12.43a34.1,34.1,0,0,0,9.88-3,30.68,30.68,0,0,0,8.59-5.76C138.39,127.13,138,126.51,137.55,126.8Z" style="fill:#fd875e"/><path d="M129.7,127l-2.36,2.39a.16.16,0,0,0,.22.22l2.39-2.36C130.12,127.1,129.86,126.84,129.7,127Z" style="fill:#fd875e"/><path d="M125.5,121.5c-.93,1.25-1.87,2.48-2.76,3.76-.13.19.18.43.32.25,1-1.24,1.89-2.52,2.82-3.79C126.05,121.49,125.67,121.28,125.5,121.5Z" style="fill:#fd875e"/><path d="M123.71,114.37l-1.59,2.57c-.14.23.23.45.38.21l1.58-2.57C124.22,114.35,123.85,114.13,123.71,114.37Z" style="fill:#fd875e"/><path d="M144.34,126a17,17,0,0,1-2.32,2.24l-2.48,2.06c-.26.21.07.62.35.45a11.67,11.67,0,0,0,2.61-2,30,30,0,0,0,2.06-2.56C144.65,126.07,144.44,125.9,144.34,126Z" style="fill:#fd875e"/><path d="M120.12,109.27c-.59,1.45-1.19,2.9-1.78,4.36-.11.26.32.37.42.11q.9-2.17,1.78-4.35C120.65,109.13,120.23,109,120.12,109.27Z" style="fill:#fd875e"/><path d="M123.65,137.47q-4.47-5.55-9-11.09a1.18,1.18,0,0,0-.75-.53c-.35,0-.63.27-.86.55a12.09,12.09,0,0,0-3,7.07,7.53,7.53,0,0,0,.84,4.09,61,61,0,0,0-17.81,31.09,55.81,55.81,0,0,0-1.3,11.23c0,.43.63.42.66,0a62.41,62.41,0,0,1,14.69-36,58.21,58.21,0,0,1,4.82-5C114.83,141.17,120.13,139.83,123.65,137.47Z" style="fill:#93ca9f"/><path d="M250.32,86.22s-.06,0-.08.09l.27.42a.23.23,0,0,1,0,.29c2.23,3.35,4.3,6.8,6.25,10.31a23.54,23.54,0,0,1,6.34-19.16c.15-.18.28-.37.43-.55a.51.51,0,0,1,.74-.09.73.73,0,0,1,.43.82c0,.11-.05.22-.08.33.92,4.1.44,8.39-.31,12.48a61.92,61.92,0,0,1-4,13.06l.3.6q1.62,3.34,3.07,6.76a9.82,9.82,0,0,1,1.05,2.54c.4,1,.78,2,1.15,2.94A105.06,105.06,0,0,1,270,129.88c.11.45-.53.57-.68.16-1.59-4.47-3.11-9-4.85-13.37-9.78.59-18.46-7.21-20.45-16.52a.59.59,0,0,1,.74-.69c4.34,1.46,8.75,3,12.56,5.55a23.36,23.36,0,0,1,3.24,2.64c-.4-.85-.78-1.71-1.19-2.56a.52.52,0,0,1-.42-.32,21.13,21.13,0,0,1-1.15-2.8q-3.28-6.36-7.18-12.39a5.29,5.29,0,0,1-2.34,2.87A11.42,11.42,0,0,1,242.86,94c-7.05.55-14.84-1-20.36-5.6a.61.61,0,0,1,.15-1c4.91-2.18,10.08-4.15,15.52-4.29a20.58,20.58,0,0,1,6.7.91,16.9,16.9,0,0,1,2.84,1.18,137.13,137.13,0,0,0-11.14-14,23.51,23.51,0,0,1-2.68,2.88,25.29,25.29,0,0,1-20.32,6.29.52.52,0,0,1-.42-.78,17.24,17.24,0,0,1,5-5A40.09,40.09,0,0,1,225,70.6c2.75-1.23,6.29-2.17,9.43-1.63q-3.15-3.28-6.52-6.34c-1.45-1.31-2.93-2.57-4.44-3.81a27.83,27.83,0,0,1-3.32,4.74A28.27,28.27,0,0,1,200,73a.53.53,0,0,1-.48-.68,18,18,0,0,1,3.7-5.59,35.07,35.07,0,0,1,9.92-6.9,22.32,22.32,0,0,1,5.42-1.93,10.82,10.82,0,0,1,3.67-.1,122.66,122.66,0,0,0-11.61-8.26,18.79,18.79,0,0,1-2.39,5.4c-4.84,7.44-13.73,10.53-22.31,10.12a.61.61,0,0,1-.55-.77,15.15,15.15,0,0,1,3.11-5.84,33.42,33.42,0,0,1,9.94-7.5c3-1.59,6.45-2.95,9.89-2.82q-3.82-2.27-7.8-4.24a9.88,9.88,0,0,1-2.41.35,18.11,18.11,0,0,1-3.45-.18,19.16,19.16,0,0,1-15.37-12.43c-.12-.14-.24-.27-.35-.41-.42-.53.18-1.46.81-1l.08,0a58.4,58.4,0,0,0,6.4,1.67,23.62,23.62,0,0,1,14.12,10.4l.52.25c2.45,1.2,4.85,2.5,7.21,3.88a24.26,24.26,0,0,1-6.3-23.86.49.49,0,0,1,.82-.19,41.88,41.88,0,0,1,5.08,5.81,20.29,20.29,0,0,1,2.9,6.82,60.14,60.14,0,0,1,1.28,7.17,20.33,20.33,0,0,1-.18,6.42l.63.39a124.37,124.37,0,0,1,11.53,8.36,25.38,25.38,0,0,1-1.32-2.31,31.4,31.4,0,0,1,1-30,.6.6,0,0,1,1,0,42.32,42.32,0,0,1,3.32,27.88c-.5,2.21-1.42,4.44-1.21,6.74a130.19,130.19,0,0,1,9.44,9.06l.35-.08a22.81,22.81,0,0,1-2.2-5.53c-2.17-8.74.5-18,5.37-25.3.18-.26.67-.32.8,0a35.83,35.83,0,0,1-2.67,32.48s0,0-.07.08a135.83,135.83,0,0,1,9.08,11.09c-.25-.58-.47-1.17-.67-1.77a23.74,23.74,0,0,1,8-25.73.69.69,0,0,1,1.07.17,23.35,23.35,0,0,1,2,7C258.14,70.15,254.77,78.72,250.32,86.22ZM238.83,62.65a56.27,56.27,0,0,0,1.29-7.52A55,55,0,0,0,240,42.5c-.85,4.18-1.65,8.37-2.2,12.6-.31,2.45-.55,4.91-.65,7.38-.08,2-.15,4-.09,6C237.71,66.52,238.35,64.61,238.83,62.65Zm2.3-19.11c.13,1,.24,2,.3,3a53.89,53.89,0,0,1-.61,12.1c-.23,1.36-.5,2.75-.82,4.12A36,36,0,0,0,241.13,43.54Zm-4.66,24a44.77,44.77,0,0,1-.17-4.92c.08-2.56.3-5.11.63-7.64.66-5.1,1.69-10.14,2.74-15.17a.36.36,0,0,1,.28-.29l-.09-.26a38.63,38.63,0,0,0-2.94,5.54A29.51,29.51,0,0,0,236.47,67.5ZM182.29,32.08A106.56,106.56,0,0,0,197.82,41a22.43,22.43,0,0,0-12.44-8.14C184.35,32.57,183.32,32.34,182.29,32.08Zm17,11.25,0,0-.36-.16a46.61,46.61,0,0,1-10.71-4.27A32.29,32.29,0,0,1,181.42,34,18.31,18.31,0,0,0,195,43.21a20.21,20.21,0,0,0,3.11.18C198.48,43.39,198.89,43.36,199.3,43.33Zm-12.05,19.2a80.74,80.74,0,0,1,20.09-13.35,18.22,18.22,0,0,0-3.83.78,36.28,36.28,0,0,0-10.4,5.75A18.93,18.93,0,0,0,187.25,62.53Zm21.3-11a40.57,40.57,0,0,1-19.34,12.3A24.91,24.91,0,0,0,201.35,60,19.33,19.33,0,0,0,208.55,51.55Zm-.25-1.43a87.1,87.1,0,0,0-19.57,12.69A38.8,38.8,0,0,0,208.3,50.12Zm1.76-9.29c.21.89.41,1.77.61,2.65,0-.51-.08-1-.15-1.55a66.3,66.3,0,0,0-1.19-6.56,20.39,20.39,0,0,0-2.8-6.66c-.4-.6-.84-1.18-1.29-1.74a34.19,34.19,0,0,1,3.18,7.55C209.05,36.6,209.57,38.72,210.06,40.83Zm-6.87-15.44a99.31,99.31,0,0,0,6.67,19.5c0-.17-.07-.35-.1-.51-.24-1-.47-2-.7-3-.48-2.08-1-4.15-1.58-6.19A39.7,39.7,0,0,0,203.19,25.39Zm6.2,21.43a83,83,0,0,1-7.25-21.66,23.71,23.71,0,0,0,.76,11.61A24.33,24.33,0,0,0,209.39,46.82Zm-7.12,22.75c5.39-4.6,11.76-8,18.19-10.91-3.5.32-6.92,2-9.84,3.79A27.93,27.93,0,0,0,202.27,69.57Zm.31,1.28a44.73,44.73,0,0,0,10-4.81,41.26,41.26,0,0,0,5.16-3.86c.73-.64,1.44-1.3,2.16-1.94C213.77,63.25,207.75,66.38,202.58,70.85Zm18.78-10.59c-1.07.93-2.1,1.9-3.17,2.83a39.88,39.88,0,0,1-16.7,8.67.59.59,0,0,1-.25.07l-.15,0a.27.27,0,0,1-.2,0,.41.41,0,0,1,0,.09A26.9,26.9,0,0,0,221.36,60.26Zm3.52-31.14c1.44,9.07.92,18.32.6,27.48,0,.13,0,.26.07.38.26-1.4.72-2.79,1-4.17A41.12,41.12,0,0,0,224.88,29.12Zm-.86.52a90.47,90.47,0,0,0-.34,13c.13,2.74.39,5.48.78,8.2.12.82.27,1.64.41,2.46,0-3.6.08-7.2.06-10.8A87.34,87.34,0,0,0,224,29.64ZM223.5,51.8a87.24,87.24,0,0,1-.3-23.61,27.24,27.24,0,0,0-1.79,4.7,30.67,30.67,0,0,0-.6,13.64,29.82,29.82,0,0,0,2,6.61c.42,1,.88,1.88,1.39,2.78C223.89,54.55,223.71,53.15,223.5,51.8Zm-5,24a55.85,55.85,0,0,1,6.71-3.44,57.65,57.65,0,0,1,7.27-2.58,10.49,10.49,0,0,0-1.12,0,19.53,19.53,0,0,0-6.24,1.85,42.49,42.49,0,0,0-6.24,3.84ZM235.26,71a49,49,0,0,1-8.76,5.28c-1.61.78-3.26,1.48-4.92,2.15-.81.33-1.64.71-2.47,1A24.58,24.58,0,0,0,235.26,71Zm.51-.61-.24-.26a56.84,56.84,0,0,0-9.91,3.32,78.44,78.44,0,0,0-10.81,6.06h0l1.3.07a.43.43,0,0,1,.23-.27,19.82,19.82,0,0,1,2.48-1c.84-.31,1.68-.64,2.52-1,1.58-.63,3.15-1.28,4.7-2a53.11,53.11,0,0,0,9.1-5c.22-.15.46.07.47.29ZM249,87.11l0-.06a22.33,22.33,0,0,0-4.5-2,21.18,21.18,0,0,0-6.44-.72c-4.85.16-9.49,1.85-13.9,3.77A22.62,22.62,0,0,0,232.86,92a35.41,35.41,0,0,0,9.3.74,11.35,11.35,0,0,0,5.09-1.21,4.61,4.61,0,0,0,1.85-1.76,44.35,44.35,0,0,1-21-.59.75.75,0,0,1-.14-1.36,31.29,31.29,0,0,1,17.92-1.57,30,30,0,0,1,3,.79Zm-1.06,1.17a30.25,30.25,0,0,0-17.05.06,42.75,42.75,0,0,0,17.56.07Zm8.19,17.49a35.75,35.75,0,0,0-6.79-3.43,66.92,66.92,0,0,1,6.25,4.41c1.53,1.22,3,2.49,4.45,3.83,1,.94,2.06,1.9,3,2.92A18.34,18.34,0,0,0,256.12,105.77Zm3,5.7q-2.07-2-4.29-3.76c-1.57-1.28-3.2-2.48-4.86-3.62a44.12,44.12,0,0,0,3.58,3.91,45.78,45.78,0,0,0,8.42,6.39C261,113.41,260.08,112.41,259.1,111.47Zm4.39,4.41,0,0s0,0-.06,0a49.52,49.52,0,0,1-5.35-3,41.81,41.81,0,0,1-4.6-3.67,42.62,42.62,0,0,1-4.24-4.47c-.59-.72-1.17-1.58-1.86-2.29l-1.82-1.13a20.17,20.17,0,0,0,7.37,10.67A22.63,22.63,0,0,0,263.49,115.88Zm.45-34.32c-1.42,6.32-2.7,12.66-3.57,19.08a60.83,60.83,0,0,0,2.69-9.44A37.7,37.7,0,0,0,263.94,81.56ZM259,100.29a174.34,174.34,0,0,1,3.74-19.72,22.28,22.28,0,0,0-4.52,9.63,20.5,20.5,0,0,0-.35,2.82A32.75,32.75,0,0,0,259,100.29Zm-3.85-41.18q0,1.32,0,2.64A60.8,60.8,0,0,1,253,73.56c-.51,2-1.06,3.9-1.59,5.86-.33,1.22-.6,2.51-.95,3.76.75-1.35,1.46-2.72,2.08-4.13C255.33,72.8,256.64,65.77,255.17,59.11Zm-1.35-1.88a56,56,0,0,0-4.57,13.46,33,33,0,0,0-.53,7.75,29.19,29.19,0,0,0,.44,3.73c0,.11.06.22.08.33.31-1.33.73-2.64,1.07-3.91C252.22,71.56,254.18,64.53,253.82,57.23Zm-5.95,22.14c-.77-7.89,1.79-15.37,4.95-22.47a22.26,22.26,0,0,0-3.15,3.7,22,22,0,0,0-3.76,12.84,23.54,23.54,0,0,0,2.73,10.16A22.42,22.42,0,0,1,247.87,79.37Z" style="fill:#6e9488"/><path d="M142.27,182.36a16.39,16.39,0,0,1,3.21.8c1.19.35,2.38.72,3.56,1.09q3,.94,5.86,2a10.35,10.35,0,0,1-.38-1.58c-.19-.94-.37-1.89-.57-2.84s-.42-1.88-.64-2.82a11.28,11.28,0,0,1-.62-2.84.74.74,0,0,1,1.38-.42,8.74,8.74,0,0,1,.8,2.78c.22,1,.41,2,.59,3s.32,1.91.43,2.87a6,6,0,0,1,0,2.28,57.18,57.18,0,0,1,11.82,6.13l.45.32c-.1-.62-.12-1.28-.18-1.88q-.13-1.44-.24-2.88c-.08-1-.15-1.92-.22-2.88l-.1-1.33a2.79,2.79,0,0,0-.11-1,.61.61,0,0,1-.1-.92.84.84,0,0,1,1.08-.2,1.49,1.49,0,0,1,.62,1.19c.13,1.21.15,2.44.22,3.65s.15,2.37.2,3.55a14.46,14.46,0,0,1,0,3.54,51.35,51.35,0,0,1,10.44,10.68c0-.66,0-1.32,0-1.92-.06-1.53-.1-3.07-.14-4.6s-.07-3.07-.1-4.61c0-.77,0-1.53-.05-2.3a3.89,3.89,0,0,1,.21-2,.61.61,0,0,1,1.07,0,3.87,3.87,0,0,1,.28,2c0,.77,0,1.54,0,2.31l.06,4.61c0,1.53,0,3.07,0,4.6a22,22,0,0,1-.11,3.71c.95,1.41,1.85,2.87,2.66,4.37,2.15,4,4.17,8.5,4.66,13.1,0,.46-.57.48-.71.11a119.56,119.56,0,0,0-4.58-11.32,51.75,51.75,0,0,0-3.41-5.68,15.64,15.64,0,0,1-2.81.43c-1.09.13-2.18.22-3.28.32s-2.1.19-3.16.27l-1.58.13a3.63,3.63,0,0,1-1.64,0,.74.74,0,0,1-.18-1.3,3.43,3.43,0,0,1,1.56-.31l1.7-.13,3.16-.22c1.05-.07,2.1-.15,3.15-.19.76,0,1.53-.1,2.3-.07-.76-1-1.54-2.07-2.37-3a48.47,48.47,0,0,0-8.23-7.68l-.13,0c-1.33.66-2.67,1.3-4,1.92-.21.15-.41.32-.62.48l-1.1.8a11.89,11.89,0,0,1-1.09.77.93.93,0,0,1-1.38-.5.89.89,0,0,1,.55-1.13.41.41,0,0,1,.15,0c2-1.27,4-2.4,6-3.51a54.85,54.85,0,0,0-10.17-5.44c-.31-.13-.63-.24-1-.36a4.06,4.06,0,0,1-.37.32c-.32.26-.65.51-1,.74-.66.45-1.31.91-2,1.35l-2,1.35-1,.7a3.47,3.47,0,0,1-1.12.63.77.77,0,0,1-.83-.29.84.84,0,0,1-.07-.91,6.57,6.57,0,0,1,2-1.55l2.09-1.28c.71-.43,1.41-.83,2.13-1.23l.66-.36c-1.63-.61-3.27-1.19-4.93-1.72-1.18-.38-2.37-.75-3.56-1.1a21.56,21.56,0,0,1-3.68-1.25C141.42,183.33,141.64,182.3,142.27,182.36Z" style="fill:#6e9488"/><path d="M137.67,182.32a5.67,5.67,0,0,1,1.33-2.5l1.06-.89a5.13,5.13,0,0,1,2.68-.81,3.83,3.83,0,0,1,2,.45,4,4,0,0,1,1.73,1.14,4.18,4.18,0,0,1,1.13,1.78,4.43,4.43,0,0,1,.49,2.16l-.17,1.49a5.67,5.67,0,0,1-1.32,2.49l-1.07.9a5.1,5.1,0,0,1-2.67.81,3.79,3.79,0,0,1-2.06-.46,3.92,3.92,0,0,1-1.73-1.13A4.19,4.19,0,0,1,138,186a4.39,4.39,0,0,1-.5-2.15Z" style="fill:#fd875e"/><path d="M142.88,192.17a3.62,3.62,0,0,1,.86-1.63l.7-.58a3.26,3.26,0,0,1,1.74-.53,2.42,2.42,0,0,1,1.34.3,2.6,2.6,0,0,1,1.13.73,2.86,2.86,0,0,1,.73,1.17,2.91,2.91,0,0,1,.32,1.4c0,.33-.07.65-.11,1a3.64,3.64,0,0,1-.86,1.62l-.7.58a3.26,3.26,0,0,1-1.74.53,2.49,2.49,0,0,1-1.34-.29,2.62,2.62,0,0,1-1.13-.74,2.86,2.86,0,0,1-.73-1.17,2.8,2.8,0,0,1-.32-1.4Z" style="fill:#fd875e"/><path d="M150.07,175.48a3.74,3.74,0,0,1,.91-1.71l.72-.61a3.57,3.57,0,0,1,1.84-.56,2.69,2.69,0,0,1,1.4.31,2.75,2.75,0,0,1,1.19.78,2.86,2.86,0,0,1,.77,1.22,3,3,0,0,1,.34,1.48l-.11,1a4,4,0,0,1-.92,1.71l-.72.61a3.57,3.57,0,0,1-1.83.56,2.71,2.71,0,0,1-1.41-.31,2.75,2.75,0,0,1-1.19-.78,2.86,2.86,0,0,1-.77-1.22,3,3,0,0,1-.34-1.48Z" style="fill:#fd875e"/><path d="M156.43,197.94a4.14,4.14,0,0,1,1-1.8l.77-.65a3.76,3.76,0,0,1,1.93-.58,2.73,2.73,0,0,1,1.48.33,2.91,2.91,0,0,1,1.25.81,3,3,0,0,1,.81,1.29,3.08,3.08,0,0,1,.35,1.56l-.12,1.07a4.12,4.12,0,0,1-1,1.8l-.77.65a3.69,3.69,0,0,1-1.93.58,2.71,2.71,0,0,1-1.48-.33,2.77,2.77,0,0,1-1.25-.81,3,3,0,0,1-.81-1.29,3.19,3.19,0,0,1-.36-1.55Z" style="fill:#fd875e"/><path d="M164.84,182.49a4.32,4.32,0,0,1,1-1.89l.8-.67a3.79,3.79,0,0,1,2-.61,2.9,2.9,0,0,1,1.56.34,3,3,0,0,1,1.3.85,3.22,3.22,0,0,1,.86,1.35,3.39,3.39,0,0,1,.37,1.63c0,.38-.09.75-.13,1.13a4.23,4.23,0,0,1-1,1.88l-.8.68a3.88,3.88,0,0,1-2,.61,2.9,2.9,0,0,1-1.56-.34,2.94,2.94,0,0,1-1.3-.86,3.1,3.1,0,0,1-.86-1.35,3.33,3.33,0,0,1-.37-1.62Z" style="fill:#fd875e"/><path d="M176.84,189.29a3.39,3.39,0,0,1,.47-1.64l.63-.9a4.13,4.13,0,0,1,1.82-1.15l1.1-.18A3.94,3.94,0,0,1,183,186l.07,0,0,0h0l.85.67c.23.29.45.59.67.89l.43,1c.06.38.12.77.17,1.16l-.13,1.16a3.37,3.37,0,0,1-.72,1.51,2.13,2.13,0,0,1-.73.79,4,4,0,0,1-2,.9,3,3,0,0,1-1.66-.06,4.43,4.43,0,0,1-1-.44l0,0-.07,0a3.22,3.22,0,0,1-1.18-1.11,3.45,3.45,0,0,1-.77-1.48A3.55,3.55,0,0,1,176.84,189.29Z" style="fill:#fd875e"/><path d="M162.38,207.16a4.88,4.88,0,0,1,1.14-2.14l.91-.77a4.48,4.48,0,0,1,2.3-.69,3.37,3.37,0,0,1,1.76.39,3.45,3.45,0,0,1,1.49,1,3.62,3.62,0,0,1,1,1.53,3.79,3.79,0,0,1,.43,1.85l-.15,1.28a4.73,4.73,0,0,1-1.14,2.14l-.91.77a4.29,4.29,0,0,1-2.29.69,3.28,3.28,0,0,1-1.77-.38,3.45,3.45,0,0,1-1.48-1,3.61,3.61,0,0,1-1-1.54,3.76,3.76,0,0,1-.42-1.85C162.29,208,162.33,207.59,162.38,207.16Z" style="fill:#fd875e"/><path d="M117.37,196.55a9.45,9.45,0,0,0,.24,1.29c.09.37.17.75.24,1.12a20.59,20.59,0,0,1,.29,2.33.37.37,0,0,0,.73,0c0-.41.12-.82.13-1.24a10.3,10.3,0,0,0,0-1.24c0-.43-.09-.87-.16-1.3a4.86,4.86,0,0,0-.4-1.24C118.19,195.78,117.3,196,117.37,196.55Z" style="fill:#93ca9f"/><path d="M60.51,184.5c1.28-.27,2.71.48,3.83,1a25.21,25.21,0,0,1,3.61,2c4.11,2.8,7.46,6.53,11,10A155.63,155.63,0,0,0,91,208.4a157.55,157.55,0,0,0,26.59,17.28l1.16.42,0-.11c-2.21-2.48-4.37-5-6.45-7.61a135,135,0,0,1-11.61-15.92c-2.87-4.9-5.86-11-4.27-16.8a.63.63,0,0,1,.91-.38,17.6,17.6,0,0,1,5.83,4.65c0-.71-.09-1.43-.07-2.13,0-1,.46-2,1.54-2.12s2.25.92,3,1.7a17.54,17.54,0,0,1,1.28,1.44,4.86,4.86,0,0,1,.77-2.08,3.27,3.27,0,0,1,2.79-1.41,2.58,2.58,0,0,1,2.26,2.06,18.7,18.7,0,0,1,.26,2,4.33,4.33,0,0,1,1.89-1.92,2.93,2.93,0,0,1,3.38.69c1.78,1.92,1.7,5,1.85,7.45.22,3.48.27,7,.19,10.44-.15,6.94-.79,13.86-1.4,20.76a187.43,187.43,0,0,0,28.22,6.92l1.2.18a57,57,0,0,1-5.31-4,40,40,0,0,1-9.16-10.37,23.3,23.3,0,0,1-1.52-3.09,2.67,2.67,0,0,1,.19-2.74,1.9,1.9,0,0,1,2.54-.2c.61.31,1.22.64,1.83,1a5.54,5.54,0,0,1,.19-3.46.66.66,0,0,1,.77-.45,10.3,10.3,0,0,1,2.51,1.36,4.27,4.27,0,0,1,.45-1.39,2.91,2.91,0,0,1,2.19-1.72,2,2,0,0,1,1.73,1.29,23.09,23.09,0,0,1,1.38,3.19,44.12,44.12,0,0,1,1.82,6.88c.89,4.68,1.38,9.44,2.62,14.06,0,0,0,0,0,0a184.29,184.29,0,0,0,26.55,1.9,177.53,177.53,0,0,0,30.09-2.59c.85-.15,1.22,1.16.35,1.31-1.24.22-2.49.42-3.74.61a179.58,179.58,0,0,1-30.38,2,185.65,185.65,0,0,1-23.31-1.93l-.06.06a2.68,2.68,0,0,1-.25.82c-.18.46-.36.92-.55,1.38-.68,1.65-1.46,3.27-2.27,4.86a75,75,0,0,1-5.11,8.52,61.54,61.54,0,0,1-5.94,7.52,12,12,0,0,1-3.83,2.83c-1.11.47-2.62.86-3.68.07-1.32-1-.57-2.7-.06-3.92.26-.62.56-1.23.85-1.84-.36.26-.73.51-1.12.75-.88.54-2.15,1.46-3.26,1.11-1.3-.41-1-1.9-.55-2.83a10.07,10.07,0,0,1,1.06-1.75,7.39,7.39,0,0,1-2.27.75,2.73,2.73,0,0,1-2.88-2c-.85-2.78,1.89-4.88,3.84-6.29a37.91,37.91,0,0,1,8.2-4.29c2.91-1.15,5.9-2.08,8.86-3.07,1.48-.5,3-1,4.42-1.57a13.88,13.88,0,0,0,2.93-1.36c-1.74-.27-3.48-.55-5.21-.87a188.79,188.79,0,0,1-24.88-6.4,29.08,29.08,0,0,0-4.71,8,41.11,41.11,0,0,1-4.47,7.81,60,60,0,0,1-6.4,7c-2,1.9-4.32,4.8-7.39,4.29a3,3,0,0,1-2.53-2.28,3.18,3.18,0,0,1-.06-.43c-1.6.7-3.36.89-4.69-.61a2.6,2.6,0,0,1-.44-2.85,5.3,5.3,0,0,1,.55-.87,7.28,7.28,0,0,1-4.87-.49.75.75,0,0,1-.28-1l1.75-2.6a22.37,22.37,0,0,1-4.39.57,2.3,2.3,0,0,1-2.22-.87,2.82,2.82,0,0,1,0-2.39c2.27-5.91,9.66-7.54,15.06-9.09q5.82-1.66,11.69-3.11c3.18-.79,6.4-1.59,9.64-2.13-3.71-.85-7.41-1.74-11.1-2.72-10.43-2.8-20.73-6.06-30.91-9.67-4.49-1.6-9.13-3.09-13.35-5.36-3.75-2-7.06-4.78-8.78-8.75a.66.66,0,0,1,.72-1l4.28.57c-.64-.71-1.26-1.42-1.87-2.15-.78-.92-1.75-2-1.33-3.29s1.65-1.52,2.9-1.4A12.37,12.37,0,0,1,55.69,190a.72.72,0,0,1,.5-.88,7.86,7.86,0,0,1,3.64,0,4.46,4.46,0,0,1-1-2.12A2.2,2.2,0,0,1,60.51,184.5Zm90.09,52.24a12.73,12.73,0,0,1-1.39.67c-1.48.62-3,1.16-4.5,1.68-5.44,1.87-11.1,3.38-16.07,6.37a24.47,24.47,0,0,0-3.48,2.49c-.91.8-1.91,1.87-1.75,3.19s1.36,1.66,2.52,1.24a11.62,11.62,0,0,1,3.34-1.06.65.65,0,0,1,.45,1.09,10.75,10.75,0,0,0-1.82,2.26,5.18,5.18,0,0,0-.64,1.29c-.15.6.15.64.64.44a15.53,15.53,0,0,0,5-3.57.63.63,0,0,1,1,.75,41.68,41.68,0,0,0-2.22,4.37c-.26.61-.89,1.68-.62,2.36s1.07.53,1.6.41c2.64-.58,4.53-2.85,6.18-4.83a73.88,73.88,0,0,0,4.83-6.43c1.5-2.23,2.89-4.55,4.16-6.92.63-1.17,1.22-2.36,1.79-3.56.28-.6.55-1.2.82-1.8A4.68,4.68,0,0,0,150.6,236.74Zm.36-3.47c-1-4.47-1.48-9.05-2.39-13.54a38.94,38.94,0,0,0-2.13-7.33,16.68,16.68,0,0,0-.8-1.71c-.31-.54-.6-.74-1.12-.27a2.91,2.91,0,0,0-.84,2.75.64.64,0,0,1-1.05.62,8.49,8.49,0,0,0-2.5-1.75,4.22,4.22,0,0,0,.72,3.56c.41.56-.34,1.16-.87.89l-1.95-1a18,18,0,0,0-1.91-1c-.89-.32-.7.88-.54,1.36a15.63,15.63,0,0,0,.78,1.72,29.45,29.45,0,0,0,4.25,6.19C143.73,227.34,147.48,230.14,151,233.27ZM96.8,233.2A72.48,72.48,0,0,0,88.17,236c-2.29,1-4.62,2.4-5.93,4.61a4.23,4.23,0,0,0-.76,1.91c0,.41.14.5.52.55a6.29,6.29,0,0,0,1.3-.05,21.31,21.31,0,0,0,5.12-1,.76.76,0,0,1,.85,1.1c-.78,1.16-1.57,2.32-2.35,3.49a5.75,5.75,0,0,0,4.56-.57.75.75,0,0,1,1.1.83,4.28,4.28,0,0,1-1,1.92c-.4.54-.88,1.16-.5,1.83,1.12,2,3.75.26,5-.58a.73.73,0,0,1,.75,1.26c-1.15.65-.29,2.13.69,2.37,1.5.38,2.86-.64,3.9-1.58,4.09-3.67,8.12-7.68,10.86-12.49,1.83-3.23,3-6.83,4.94-10-2.72,1.51-5.38,3.13-8,4.89-3.6,2.44-6.9,5.24-10.32,7.92-.69.53-1.5-.59-.92-1.17a70.68,70.68,0,0,1,10.29-8.1,98.74,98.74,0,0,1,8.59-5.22c-3.25.89-6.56,1.61-9.83,2.44C103.65,231.27,100.21,232.21,96.8,233.2Zm15-35.23a112.43,112.43,0,0,0,7.91,26.31c.24-2.54.48-5.09.68-7.63a160.4,160.4,0,0,0,.55-18.73c-.06-1.53-.15-3.07-.28-4.6a9.4,9.4,0,0,0-.71-3.27c-.37-.79-1-1.59-2-1.46-1.26.18-1.92,1.76-2.33,2.79a.7.7,0,0,1-1.25.17,5.26,5.26,0,0,1-.72-2.55c-.07-.71-.07-1.8-.8-2.2s-1.63.18-2,.77a5.88,5.88,0,0,0-.63,3.18.68.68,0,0,1-1.26.35,15.31,15.31,0,0,0-1.76-2.31c-.53-.57-1.29-1.54-2.07-1.73-1-.24-.62,1.54-.59,2.05.06,1,.11,2.08.17,3.12a.67.67,0,0,1-1.24.34,17.09,17.09,0,0,0-6-5.79,15.59,15.59,0,0,0,1.12,8.59c2.23,5.85,5.94,11,9.69,16,3.06,4,6.19,8,9.31,12a111.86,111.86,0,0,1-7.33-25C110.07,197.39,111.58,197,111.75,198Zm-51.27-11.9a1.2,1.2,0,0,0-.11,1.19c.34,1.09,1.32,1.89,1.73,3,.24.62-.54,1.08-1.05.82a6.34,6.34,0,0,0-3.7-.66A10.65,10.65,0,0,0,59.57,194a.72.72,0,0,1-.85,1.13c-.64-.29-3.53-1-3,.54a9.06,9.06,0,0,0,1.91,2.47c.72.82,1.47,1.63,2.22,2.44a.7.7,0,0,1-.67,1.16l-5-.75c1.91,4,6.06,6.53,10,8.33,4.5,2.07,9.26,3.63,13.93,5.27q7.45,2.61,15,5,9.86,3.09,19.83,5.81a183.67,183.67,0,0,1-24.62-11.41,180.71,180.71,0,0,1-25-17.24c-.26-.21.1-.58.36-.37,1,.82,2.05,1.64,3.11,2.42a200.1,200.1,0,0,0,25.46,15.92c5.15,2.72,10.44,5.15,15.82,7.37q-2.68-1.61-5.3-3.31a156.81,156.81,0,0,1-23.91-19.22c-3.39-3.32-6.55-6.92-10.33-9.8a23.76,23.76,0,0,0-6.12-3.47C61.84,186,60.93,185.64,60.48,186.07Z" style="fill:#93ca9f"/><path d="M116.35,205.16a11.42,11.42,0,0,0,.45,3.47l.3,1.72c.1.58.28,1.12.36,1.71.06.38.63.21.58-.16-.08-.6-.05-1.2-.11-1.8s-.11-1.11-.16-1.67a11.45,11.45,0,0,0-.48-3.4A.48.48,0,0,0,116.35,205.16Z" style="fill:#93ca9f"/><path d="M103.07,200.31c.51,1.82,1.29,3.55,2,5.31.11.3.57.18.48-.13-.53-1.8-.94-3.65-1.62-5.4C103.69,199.61,102.93,199.79,103.07,200.31Z" style="fill:#93ca9f"/><path d="M105,195.68a4.42,4.42,0,0,0,.15,1c.11.32.21.64.32,1a7.25,7.25,0,0,0,.77,1.84.21.21,0,0,0,.39-.1,7.08,7.08,0,0,0-.27-2l-.21-1a4.24,4.24,0,0,0-.4-1A.41.41,0,0,0,105,195.68Z" style="fill:#93ca9f"/><path d="M67.26,194.58q2.07,1.62,4.17,3.21a.4.4,0,1,0,.49-.64q-2.15-1.54-4.3-3.06C67.34,193.9,67,194.36,67.26,194.58Z" style="fill:#93ca9f"/><path d="M66,206.54a.32.32,0,0,0,.12.42l3,2a.32.32,0,1,0,.31-.55l-3-1.94A.31.31,0,0,0,66,206.54Z" style="fill:#93ca9f"/><path d="M76.49,202.27c2.14,1.46,4.08,3.15,6.11,4.76.36.28.85-.19.51-.52a46.79,46.79,0,0,0-6.29-4.82C76.46,201.45,76.13,202,76.49,202.27Z" style="fill:#93ca9f"/><path d="M92.56,238.85a.32.32,0,0,0,.17.62l4.3-1.15a.35.35,0,0,0-.19-.68Z" style="fill:#93ca9f"/><path d="M107,241.93c-2,1.67-3.75,3.49-5.63,5.24-.35.32.18.84.52.51,1.88-1.74,3.83-3.41,5.64-5.24C107.9,242.1,107.39,241.63,107,241.93Z" style="fill:#93ca9f"/><path d="M112.51,233.72a32.06,32.06,0,0,1-4.1,4c-.23.18.08.58.32.4A23.21,23.21,0,0,0,113,234.2C113.29,233.87,112.81,233.39,112.51,233.72Z" style="fill:#93ca9f"/><path d="M142.44,246.23a14.87,14.87,0,0,0-1.09,1.29c-.34.46-.69.92-1,1.37a26.24,26.24,0,0,1-2.3,2.53c-.25.25.14.63.39.38.82-.81,1.62-1.65,2.4-2.51q.57-.63,1.11-1.29a9,9,0,0,0,1-1.46A.26.26,0,0,0,142.44,246.23Z" style="fill:#93ca9f"/><path d="M135.89,245.76c-1,.74-2,1.47-3,2.19-.31.22,0,.72.3.51,1.06-.71,2.12-1.41,3.19-2.1a26.31,26.31,0,0,0,3.06-2.2c.26-.23-.08-.61-.37-.46A26.81,26.81,0,0,0,135.89,245.76Z" style="fill:#93ca9f"/><path d="M145,241.12a16.63,16.63,0,0,1-2.95,2.33.35.35,0,0,0,.36.61,14.18,14.18,0,0,0,3.14-2.41A.38.38,0,0,0,145,241.12Z" style="fill:#93ca9f"/><path d="M143.13,220.41a15,15,0,0,0,4.49,6.42c.35.29.84-.19.5-.52a17.85,17.85,0,0,1-4.05-6.15C143.85,219.58,142.91,219.82,143.13,220.41Z" style="fill:#93ca9f"/><path d="M143.67,215.45c.31.69.63,1.37,1,2,.18.33.38.65.57,1s.47.6.66.93.37,0,.29-.17a3.31,3.31,0,0,1-.19-.61c-.06-.16-.13-.32-.2-.48-.16-.34-.31-.69-.47-1-.33-.69-.7-1.34-1.09-2C144,214.72,143.49,215.06,143.67,215.45Z" style="fill:#93ca9f"/><path d="M80.25,123.74c-3.43-4.61-6.61-10.49-8.2-12.17-3.27-3.45-7.17-6.22-10.75-9.33C49.89,92.31,42,79.08,34.23,66.09c.14.25,2.9.67,3.37.87a15.4,15.4,0,0,1,3.72,2.51C43.16,71,45.16,72.12,47,73.59c5.35,4.23,9.46,9.85,14.67,14.26,3.12,2.62,6.6,4.9,9.05,8.16C73.61,99.82,75,104.9,79,107.57c-3.1-7.78-6-15.63-8.93-23.42C67,76,66.37,66.81,65.48,58.25c-.2-1.85-.35-3.89.72-5.41a123.06,123.06,0,0,1,7.85,17.3c1.59,4,3.19,8.09,4.39,12.27,2,7.07,3.26,14,5.72,20.94a46.39,46.39,0,0,1,2.92,13.59c3.14-4,2.87-9.58,3.23-14.66A50.23,50.23,0,0,1,105.83,69.6c-2.39,10.69-5.08,21.31-7.56,32-1.84,7.88-2.17,16.11-7,22.9-1.13,1.6-2.46,3.16-2.91,5.07C86,130.41,83,127.49,80.25,123.74Z" style="fill:#fdc5a9"/><path d="M12.81,285.48a59.84,59.84,0,0,1-4.17-10.31,39.3,39.3,0,0,1-.36-16.93,21.43,21.43,0,0,1,1.72-6c1.26-2.53,3.37-4.45,3.93-7.42.26-1.36.21-3,1-3.93,2.47-3.08,10.71,7.13,12.09,9.74,5.66,10.69-2.71,18-2.46,27.79.17,6.56,3.71,13.54,3.48,20,.08-2.44,1.24-4.13.83-6.75s-1.09-5.48-1.38-8.26a23.24,23.24,0,0,1,.12-7.87c.65-2.56,2.18-4.52,3.35-6.73s2-4.59,3.52-6.37c2.21-2.57,5.81-3.75,6.89-7.26l3.55,6.53c1.6,2.95,3.26,6.13,3.29,9.23,0,4.74-3.69,7.44-5.17,11.5-1.11,3-1,6.95-2.85,9.36-2.18,2.82-6,3.14-7.61,6.65a35.31,35.31,0,0,0-1.43,3.4c-.34,1,.11,3.86-.58,4.39a1.53,1.53,0,0,1-1.09.11c-3.1-.26-5.21,2.28-7.8,3.57a3.61,3.61,0,0,1-2.13.48,9.23,9.23,0,0,1-2.26-.79c-2.35-.95-4.81-1-7.06-2.42-3.26-2-5.19-6.16-8-9.09a18.08,18.08,0,0,1-2.69-3,21.12,21.12,0,0,1-1.3-3.28c-1.21-3.19-3.53-5.87-5.73-8.49-.39-.46-.81-1.18-.51-1.56.18-.23.53-.18.85-.1,3.73,1,6.87,5,10.57,6.54A15.83,15.83,0,0,1,6,289.26c1.93,1.26,2.86,3.66,4.35,5.43s3.09,2.76,4.23,4.83a2.77,2.77,0,0,0,.47.73,2.41,2.41,0,0,0,.55.37,13.88,13.88,0,0,0,3.21,1.5c.84.2,1.06-.53,2.09.15-2.47-5.39-5.17-10.71-7.76-16Z" style="fill:#fdbdbd"/><path d="M12.82,269.82a.23.23,0,0,0-.3.07.33.33,0,0,0,0,.36.34.34,0,0,0,.33.18.23.23,0,0,0,.2-.23A.39.39,0,0,0,12.82,269.82Z" style="fill:#e87f7f"/><path d="M12.69,263.68h0c-.14-.08-.31-.08-.36.08h0a.37.37,0,0,0,.28.47h0c.16,0,.24-.12.23-.27h0A.35.35,0,0,0,12.69,263.68Z" style="fill:#e87f7f"/><path d="M16.94,270.24a.18.18,0,0,0-.2.12.36.36,0,0,0,0,.21.38.38,0,0,0,.3.33.23.23,0,0,0,.24-.27.63.63,0,0,0-.08-.23A.35.35,0,0,0,16.94,270.24Z" style="fill:#e87f7f"/><path d="M8.73,303.53a.22.22,0,0,0-.3.18v.06a.39.39,0,0,0,.23.37c.14.06.25,0,.28-.17l0-.05A.4.4,0,0,0,8.73,303.53Z" style="fill:#e87f7f"/><path d="M12.28,276.85c-.1-.09-.26-.11-.32,0a.75.75,0,0,0-.07.12.35.35,0,0,0,.14.4.21.21,0,0,0,.33-.07l0-.07A.35.35,0,0,0,12.28,276.85Z" style="fill:#e87f7f"/><path d="M6.31,291.27c-.1-.09-.26-.11-.32,0l-.08.13a.38.38,0,0,0,.14.4.21.21,0,0,0,.33-.07.3.3,0,0,0,0-.08A.36.36,0,0,0,6.31,291.27Z" style="fill:#e87f7f"/><path d="M21.82,271.6c-.27.16.05.69.31.53S22.08,271.45,21.82,271.6Z" style="fill:#e87f7f"/><path d="M15.72,276.9l0,0c-.14.17.07.54.3.49h0c.16,0,.21-.24.11-.41S15.82,276.77,15.72,276.9Z" style="fill:#e87f7f"/><path d="M20.82,277.7c-.26.15.05.67.31.52S21.07,277.55,20.82,277.7Z" style="fill:#e87f7f"/><path d="M19.38,282.6a.25.25,0,0,0-.37,0,.35.35,0,0,0,0,.42l.09.08a.24.24,0,0,0,.28,0,.27.27,0,0,0,.05-.29A.64.64,0,0,0,19.38,282.6Z" style="fill:#e87f7f"/><path d="M16.61,285.63c-.27.16.05.7.32.54S16.87,285.48,16.61,285.63Z" style="fill:#e87f7f"/><path d="M21.25,291.51c-.27.16.05.7.32.54S21.52,291.35,21.25,291.51Z" style="fill:#e87f7f"/><path d="M29.62,290.48h0Z" style="fill:#e87f7f"/><path d="M29.52,289.89a.19.19,0,0,0-.2.12.29.29,0,0,0,0,.31.32.32,0,0,0,.28.16.21.21,0,0,0,.19-.13.31.31,0,0,0,0-.29A.3.3,0,0,0,29.52,289.89Z" style="fill:#e87f7f"/><path d="M29.31,290h0v0Z" style="fill:#e87f7f"/><path d="M30.56,275.53l-.13.05a.28.28,0,0,0,0,.39c.08.14.25.22.36.15a.43.43,0,0,0,.1-.09A.34.34,0,0,0,30.56,275.53Z" style="fill:#e87f7f"/><path d="M34.46,276.8l-.13.05a.28.28,0,0,0,0,.39c.09.14.25.22.36.14a.27.27,0,0,0,.1-.08A.34.34,0,0,0,34.46,276.8Z" style="fill:#e87f7f"/><path d="M45.85,266.12l-.12.05a.28.28,0,0,0,0,.39c.09.14.26.22.37.14l.1-.08A.34.34,0,0,0,45.85,266.12Z" style="fill:#e87f7f"/><path d="M31.48,287.57H31.4c-.12,0-.18.16-.15.29a.35.35,0,0,0,.28.28h.08c.16,0,.26-.14.22-.3A.33.33,0,0,0,31.48,287.57Z" style="fill:#e87f7f"/><path d="M30.07,281.19c-.27.16.05.7.32.54S30.33,281,30.07,281.19Z" style="fill:#e87f7f"/><path d="M33.56,281.65c-.27.16,0,.7.32.54S33.82,281.49,33.56,281.65Z" style="fill:#e87f7f"/><path d="M36.67,285.09c-.26.16.06.69.32.54S36.94,284.93,36.67,285.09Z" style="fill:#e87f7f"/><path d="M32,270c-.26.16.06.69.32.54S32.23,269.83,32,270Z" style="fill:#e87f7f"/><path d="M35.54,273.94c-.26.15.06.69.32.53S35.81,273.78,35.54,273.94Z" style="fill:#e87f7f"/><path d="M36.42,265.84c-.27.16,0,.7.32.54S36.69,265.68,36.42,265.84Z" style="fill:#e87f7f"/><path d="M43.86,274c-.26.15,0,.67.31.52S44.12,273.85,43.86,274Z" style="fill:#e87f7f"/><path d="M37.37,279.79c-.26.16.05.68.31.52S37.63,279.64,37.37,279.79Z" style="fill:#e87f7f"/><path d="M42.15,261.23c-.27.16.05.7.32.54S42.42,261.07,42.15,261.23Z" style="fill:#e87f7f"/><path d="M38.62,272.9c-.27.16.05.7.32.54S38.88,272.74,38.62,272.9Z" style="fill:#e87f7f"/><path d="M11.18,296.55a.45.45,0,0,0-.14-.1.23.23,0,0,0-.25.06c-.1.08,0,.31.05.42l.06.05a.24.24,0,0,0,.33,0A.35.35,0,0,0,11.18,296.55Z" style="fill:#e87f7f"/><path d="M23.08,266.91c-.26.15.05.68.31.52S23.34,266.75,23.08,266.91Z" style="fill:#e87f7f"/><path d="M4.29,297.51c-.27.16,0,.7.32.54S4.55,297.35,4.29,297.51Z" style="fill:#e87f7f"/><path d="M-2.7,284.7c-.27.15.05.69.32.53S-2.43,284.54-2.7,284.7Z" style="fill:#e87f7f"/><path d="M1,287.49c-.26.15.05.68.31.52S1.29,287.34,1,287.49Z" style="fill:#e87f7f"/><path d="M4.48,294.88c-.25.15,0,.66.31.51S4.74,294.73,4.48,294.88Z" style="fill:#e87f7f"/><path d="M11.25,301.08c-.27.16.05.69.31.53S11.51,300.92,11.25,301.08Z" style="fill:#e87f7f"/><path d="M11.45,254.57c-.27.16.05.69.32.53S11.71,254.41,11.45,254.57Z" style="fill:#e87f7f"/><path d="M6.47,299.32a.44.44,0,0,0-.2,0,.25.25,0,0,0-.09.27.36.36,0,0,0,.21.25.42.42,0,0,0,.15,0,.22.22,0,0,0,.22-.27C6.74,299.5,6.61,299.32,6.47,299.32Z" style="fill:#e87f7f"/><path d="M26.55,253a.49.49,0,0,0-.21,0,.22.22,0,0,0-.08.26.36.36,0,0,0,.2.26.4.4,0,0,0,.15,0,.22.22,0,0,0,.23-.26C26.82,253.16,26.69,253,26.55,253Z" style="fill:#e87f7f"/><path d="M21,247.06a.42.42,0,0,0-.2,0c-.09,0-.11.16-.09.27a.36.36,0,0,0,.21.25.42.42,0,0,0,.15,0,.22.22,0,0,0,.22-.27C21.22,247.24,21.09,247.06,21,247.06Z" style="fill:#e87f7f"/><path d="M17,243.37c-.26.16.06.7.32.54S17.24,243.21,17,243.37Z" style="fill:#e87f7f"/><path d="M23.73,287.06c-.27.16.05.69.32.53S24,286.9,23.73,287.06Z" style="fill:#e87f7f"/><path d="M21.75,257.51c.14-.3-.33-.66-.47-.36S21.61,257.8,21.75,257.51Z" style="fill:#e87f7f"/><path d="M23.64,252.77c.14-.3-.33-.66-.47-.36S23.5,253.07,23.64,252.77Z" style="fill:#e87f7f"/><path d="M15.07,248.26a.33.33,0,0,0,.15-.14.36.36,0,0,0-.05-.31.3.3,0,0,0-.27-.14.21.21,0,0,0-.13.05.27.27,0,0,0-.06.38C14.79,248.23,15,248.34,15.07,248.26Z" style="fill:#e87f7f"/><path d="M18.23,252.3c.14-.3-.33-.66-.47-.37S18.09,252.6,18.23,252.3Z" style="fill:#e87f7f"/><path d="M26.48,259.7c.14-.3-.33-.66-.47-.36S26.34,260,26.48,259.7Z" style="fill:#e87f7f"/><path d="M24.37,262.63c.14-.3-.33-.66-.47-.37S24.23,262.93,24.37,262.63Z" style="fill:#e87f7f"/><path d="M16.86,258.22c.14-.3-.33-.66-.47-.37S16.72,258.52,16.86,258.22Z" style="fill:#e87f7f"/><path d="M21.68,263.32c.14-.3-.33-.67-.47-.37S21.54,263.61,21.68,263.32Z" style="fill:#e87f7f"/><path d="M17.39,263.83c-.26.16.05.7.32.54S17.66,263.67,17.39,263.83Z" style="fill:#e87f7f"/><path d="M1.19,293.42c-.27.15.05.69.32.53S1.45,293.26,1.19,293.42Z" style="fill:#e87f7f"/><path d="M204.67,245.27a31.6,31.6,0,0,0-10.77,4.41c-1.71,1-3.38,2.14-5.05,3.23-.89.58-1.76,1.16-2.63,1.75-3.51-2.53-12.33,1.5-15.51,3-1.85.89-3.82,2.13-4.29,4.13a1,1,0,0,0,0,.67,1.1,1.1,0,0,0,.85.46c4.72.84,9.25-1.95,13.24-4.62-2.91,2.5-5.72,5.38-6.83,9a1.64,1.64,0,0,0,.17,1.67c.5.45,1.28.17,1.87-.15a17,17,0,0,0,6.88-7.38c-1.31,3.32-2.22,6.91-.73,10a2.34,2.34,0,0,0,.86,1.07,1.82,1.82,0,0,0,2-.38,4.69,4.69,0,0,0,1.09-1.9,30,30,0,0,0,1.79-12.74,4.82,4.82,0,0,0-.46-1.76l2.22-1.35c1.7-1.07,3.4-2.15,5.13-3.18a32.35,32.35,0,0,1,10.53-4.47C206.11,246.62,205.67,245.1,204.67,245.27Z" style="fill:#fdc5a9"/><path d="M281.57,189.69a1.79,1.79,0,0,1,.16.78,1.37,1.37,0,0,1,0,.19,1.43,1.43,0,0,1-.09.34,1.36,1.36,0,0,1-.26.45,2.2,2.2,0,0,1-.26.27l-.3.2a2.34,2.34,0,0,1-.5.19,1.53,1.53,0,0,1-.52,0,2.22,2.22,0,0,1-.49-.13h-.06c-.86,1.28-1.94,2.45-2.89,3.64l-3.41,4.24c-2.32,2.85-4.7,5.66-7.05,8.48-.18.22-.53,0-.36-.25,2.26-3,4.48-5.92,6.77-8.85l3.46-4.38c.88-1.11,1.72-2.32,2.69-3.38a2,2,0,0,1-.26-.38,2.24,2.24,0,0,1-.11-.34l0-.12a1.77,1.77,0,0,1,.11-.91,2,2,0,0,1,.49-.72,1.84,1.84,0,0,1,.75-.38,1.81,1.81,0,0,1,1.15.1A2,2,0,0,1,281.57,189.69Z" style="fill:#6e9488"/><path d="M262.11,169.86a2,2,0,0,0-1.24-.08,2.22,2.22,0,0,0-.62.24,2.4,2.4,0,0,0-.64.55,1.81,1.81,0,0,0-.42,1.18,2.21,2.21,0,0,0,.46,1.36l.09.09.06.12a1.48,1.48,0,0,0,.46.5,2.12,2.12,0,0,0,.48.23h.1q-1.29,13.51-2.55,27-.39,4.11-.71,8.23a.27.27,0,0,0,.53.05c1.13-9.62,2-19.27,2.93-28.91l.63-6.34a2.28,2.28,0,0,0,1.16-.5,2.06,2.06,0,0,0,.69-2A2.4,2.4,0,0,0,262.11,169.86Z" style="fill:#6e9488"/><path d="M276,172a2.31,2.31,0,0,0-.94-.1,1.89,1.89,0,0,0-.87.35,1.68,1.68,0,0,0-.71,1.32.43.43,0,0,0,0,.16,2,2,0,0,0,0,.35,2.47,2.47,0,0,0,.21.65,1.63,1.63,0,0,0,.31.42c-.38.74-.8,1.46-1.18,2.18-.56,1.07-1.11,2.14-1.65,3.22q-1.62,3.25-3.08,6.59A132.26,132.26,0,0,0,262.88,201c-.1.32.38.5.49.18,1.61-4.62,3.38-9.19,5.38-13.67,1-2.21,2-4.41,3.12-6.58.57-1.13,1.15-2.25,1.75-3.36.34-.64.68-1.31,1.06-1.95a1.86,1.86,0,0,0,1,.11,2,2,0,0,0,1.32-.91,1.93,1.93,0,0,0,.18-1.76A2,2,0,0,0,276,172Z" style="fill:#6e9488"/><path d="M249.69,185.26a2.23,2.23,0,0,1,.5-.71,1.25,1.25,0,0,1,1.23-.29,1.83,1.83,0,0,1,1,1.09,14.12,14.12,0,0,1,.83,2.84c.74,3.38,1.49,6.76,2.12,10.15l1,5.35c.23,1.25,1.33,3.91.93,5a157.2,157.2,0,0,1-.57-18.12c.09-2.09.21-4.18.5-6.23.2-1.4,0-4.06,1.71-4.71,3-1.15,2.66,4.84,2.66,6,0,2.81-.38,5.55-.59,8.33-.35,4.52-.52,9.35-1.59,13.71,1.93-7.85,3.87-15.7,6.25-23.41.42-1.34,1.94-8,4.56-7.37,1,.28,1.18,1.47,1.07,2.32-.71,5.21-2.39,10-4.06,14.88a143.69,143.69,0,0,1-5.51,15c2.35-5,4.71-10,7.48-14.82a17.92,17.92,0,0,1,4.74-5.85,1.23,1.23,0,0,1,1.35-.23,1,1,0,0,1,.34,1c-.28,2.78-1.84,5.18-3.38,7.51l-8.7,13.21a59.57,59.57,0,0,1,8.56-9.8,15.29,15.29,0,0,1,5.73-3.68,2.09,2.09,0,0,1,2.06.24,1.31,1.31,0,0,1-.05,1.61c-2.75,4.9-7.86,9.61-12.64,13.11-2.33,1.72-6.38,4.17-9.85,1.77-3-2.12-4.19-9.6-5.16-12.49a56.41,56.41,0,0,1-2.19-8.37C249.72,190.46,248.81,187.12,249.69,185.26Z" style="fill:#fdbdbd"/><path d="M254.83,209.42a3.11,3.11,0,0,0-.83,2.75,5.83,5.83,0,0,0,2.07,4.09c0,.12-.05.23-.07.32a17.31,17.31,0,0,0-.41,3.13,20.65,20.65,0,0,0,.84,6.49,20.16,20.16,0,0,0,3.11,6.26,18,18,0,0,0,5.24,4.95c.83.48,1.74-.59.93-1.21a24.17,24.17,0,0,1-4.81-4.61,19.45,19.45,0,0,1-3-5.87,19.69,19.69,0,0,1-.85-6.06,23,23,0,0,1,.18-2.75c1.78.66,3.87-.06,5.11-2.82C261.69,213.52,255.4,209,254.83,209.42Z" style="fill:#6e9488"/><path d="M142.07,152.69a2,2,0,0,0-.28-1.46c-.61-.84-1.35-.31-2.07-.18a2.73,2.73,0,0,1,.16-.88,12.57,12.57,0,0,0,1-4.47c-.08-1.35-1-3-2.59-2.34a6.52,6.52,0,0,0-2.87,3.19,17.07,17.07,0,0,0-1,2.47,10.93,10.93,0,0,0-.31,1.12,3.16,3.16,0,0,0-.43-1.19,1.65,1.65,0,0,0-1.63-.78,2.36,2.36,0,0,0-1.46,1.13,9.61,9.61,0,0,0-1.08,3.48c-.05.23-.07.46-.1.68l0-.09c-.17-.49-.3-1.25-.74-1.56-1.21-.86-1.89,1.42-2,2.2a11.75,11.75,0,0,0-.07,3.6c0,.42.11.83.16,1.25a1.83,1.83,0,0,0-.8,0c-1,.22-.87,1.63-.74,2.35a11.64,11.64,0,0,0,1.2,3c.49.95,1,1.88,1.58,2.8-.12.33-.22.66-.31,1a11,11,0,0,0,.1,6,.61.61,0,0,0,1.18-.32,12.66,12.66,0,0,1-.1-4.63,1,1,0,0,0,.19-.12c1.91-1.79,4.51-2.58,6.65-4a10.56,10.56,0,0,0,1.56-1.27c.45-.45,1-1.08.64-1.75a1.19,1.19,0,0,0-.7-.54,8.57,8.57,0,0,0,2.4-1.95c.39-.48,1.09-1.27.94-2s-1-.83-1.73-.76c1.46-1,2.87-1.85,3.33-3.72C142,152.85,142.05,152.77,142.07,152.69Z" style="fill:#6e9488"/><path d="M35.43,88.92c0-.32-.28-.57-.55-.73a3.58,3.58,0,0,0-4.1.47A14.93,14.93,0,0,0,34,83.11a3.25,3.25,0,0,0,.18-1.66,1.29,1.29,0,0,0-1.16-1,1.77,1.77,0,0,0-1.21.77,12.66,12.66,0,0,0-2.42,4.23,3,3,0,0,0-.53-1.28,1,1,0,0,0-1.25-.24,1.38,1.38,0,0,0-.41.62L25.8,87.6c.25-1-1.14-1.67-2-1.2a3.45,3.45,0,0,0-1.45,2.48,18.05,18.05,0,0,0-.42,3.1c-3-5.4-5.29,2.62-5.12,6.14l-.16.07a18,18,0,0,0-3.12,2,15.68,15.68,0,0,0-4.61,5.58.63.63,0,0,0,1.09.64,22.57,22.57,0,0,1,4.41-5.09,17.93,17.93,0,0,1,2.66-1.83c1.62,3.91,10.05,2.21,9.39.85a1.68,1.68,0,0,0-1.11-.71l-1.8-.53a13.79,13.79,0,0,0,6.8-2.71c.44-.33.9-.9.62-1.36a1,1,0,0,0-.52-.37,7,7,0,0,0-4.38.22,22.54,22.54,0,0,0,9-5.24A1,1,0,0,0,35.43,88.92Z" style="fill:#6e9488"/><path d="M112.72,79.53c1.12,2.85,4.8-.88,5.83-1.69,4.27-3.38,8.61-6.79,12.74-10.4-2.22,2.87-4.37,5.8-6.48,8.72-1.07,1.48-7.14,11.06-1.29,9.54,2.39-.62,4.2-4.83,4.76-6.9-1.24,4.58-1.41,8.92,1.46,10.62a.68.68,0,0,0,.69,0c3-1.95,2.85-7.47,3.45-10.74.45-2.4.86-4.81,1.27-7.22a48.94,48.94,0,0,0,.49,7.24c.26,1.82.83,6.66,3.56,6.93,2.55.25,2.16-2.5,1.83-4.17-.67-3.44-1.49-6.85-2.38-10.24-.68-2.58-2.64-6-2.07-8.72a.38.38,0,0,1,0-.1c1.84-2.14,3.55-4.41,5.25-6.62,2.6-3.39,5.18-6.8,7.71-10.25q2.58-3.49,5.06-7.06a49.82,49.82,0,0,1,2.6,5.42l0,.13c-3.4,5.9-9.11,15.1-6.27,22a.62.62,0,0,0,.95.17c2.29-2.51,2.87-6.06,3.77-9.26.54-1.94,1-3.89,1.47-5.85a60,60,0,0,0-.42,10.68c.16,2.38.48,5.68,2.69,7.13a.47.47,0,0,0,.47,0c2.47-1.26,1.5-6.12,1.29-8.42.06.17.13.33.2.49a10,10,0,0,0,.55,2.54,18.87,18.87,0,0,0,1.29,2.68,27.57,27.57,0,0,0,1.64,2.5,3.63,3.63,0,0,0,2,1.47A1.83,1.83,0,0,0,169,69a7,7,0,0,0-.18-3.15,40.46,40.46,0,0,0-1.3-5.32c1.81,1.79,4.76,4.14,6.48,2.32,2.28-2.39-2.79-6.89-4.18-8.21-3.63-3.48-7.66-6.4-11.1-10.09,0-.09,0-.18,0-.27a.34.34,0,0,0-.24-.35,19.21,19.21,0,0,0-3-6.69c2.86-4.12,5.61-8.3,8.15-12.62a115,115,0,0,0,6.59-12.71c.31-.69-.89-1.25-1.22-.56-.59,1.23-1.21,2.43-1.82,3.64-.92,1.66-1.84,3.33-2.79,5-.36.62-.73,1.22-1.09,1.83a5.82,5.82,0,0,0-3.44-.7,28.18,28.18,0,0,0-5.1.37.39.39,0,0,0-.23-.42.62.62,0,0,0-.25-.37l-.27-.19a15.11,15.11,0,0,0-2-3.8c-.42-.61-1.7-2.85-2.73-2.18s0,2.69.47,3.46A10.12,10.12,0,0,0,151,19.58c.07.28.13.56.18.85a22.35,22.35,0,0,0-9.46-.28c-2.24.42-6.41,1.47-7.26,4a.53.53,0,0,0,.21.59c1.25.8,3.21.54,4.89.24-2.28,1.05-3.76,2.35-3.27,3.92.59,1.86,3.57,1.22,7-.26-3.08,2.26-5.28,4.61-3.71,6,1.81,1.57,5.18-2.3,6.16-3.2s2-1.93,3-2.93c-.41.63-.8,1.28-1.16,1.94-.62,1.14-2.55,4.07-1.11,5.28,1.71,1.43,2.92-1.36,3.42-2.46,1.63-3.59,3.23-7.21,4.8-10.83,1.27,0,2.55-.07,3.83,0s3.08-.12,4.22.51q-4.08,6.87-8.5,13.55c-4.11,5.79-8.46,11.4-12.77,17-1.9,2.48-3.91,5-5.71,7.58a6.61,6.61,0,0,1-2.22.74,19,19,0,0,0-4.75,1.9,65.6,65.6,0,0,0-8.59,5.7A23.16,23.16,0,0,0,114.6,75C114,75.85,112.27,78.38,112.72,79.53Z" style="fill:#fdbdbd"/><path d="M136.13,62.42c-.16.32-.31.65-.47,1,.16-.32-.31-.64-.48-.31-1.32,2.57-2.83,5-4.28,7.56-.71,1.22-1.42,2.43-2.15,3.64a36.14,36.14,0,0,0-2.14,3.79c-.24.53.55.83.86.42a27.51,27.51,0,0,0,2.22-3.59c.71-1.27,1.41-2.54,2.1-3.82,1.32-2.47,2.5-5,3.77-7.5A39.64,39.64,0,0,0,133.31,69a44.14,44.14,0,0,0-1.58,7c-.08.61.89.68,1,.06a44.09,44.09,0,0,1,1.45-6.92,43,43,0,0,1,2.38-6.55C136.64,62.39,136.25,62.2,136.13,62.42Z" style="fill:#fd875e"/><path d="M134.7,62.17a119.88,119.88,0,0,0-12,7c-.56.38-.1,1.35.49,1,3.92-2.53,7.8-5.12,11.79-7.55C135.21,62.46,135,62,134.7,62.17Z" style="fill:#fd875e"/><path d="M136.4,69.22a31.21,31.21,0,0,1-.22-6.76c0-.26-.38-.29-.41,0-.13,1.17-.34,2.32-.39,3.49a31.6,31.6,0,0,0,0,3.37A32.65,32.65,0,0,0,136.53,76c.21.77,1.44.52,1.22-.24A39,39,0,0,1,136.4,69.22Z" style="fill:#fd875e"/><path d="M152.65,22,152,22a.35.35,0,0,0-.36-.33c-2,.05-4,.14-6,.19-.24,0-.28.38,0,.39,1.14,0,2.27.1,3.41.15a6.65,6.65,0,0,0-.76.23A11.2,11.2,0,0,0,144.5,25c-.42.4.16,1.07.6.68a13.14,13.14,0,0,1,3.46-2.23,13.83,13.83,0,0,1,2.78-.95h.23a.41.41,0,0,0,.28-.1,6.48,6.48,0,0,1,.77-.09C152.85,22.33,152.88,22,152.65,22Z" style="fill:#fd875e"/><path d="M151.41,23a27.38,27.38,0,0,0-4.86,4.76c-.3.39.33.81.63.42a34.09,34.09,0,0,1,4.51-4.87C151.89,23.16,151.62,22.87,151.41,23Z" style="fill:#fd875e"/><path d="M165.45,54.82q-1.87-2.19-3.64-4.49c-1.17-1.52-2.19-3.13-3.27-4.71a.19.19,0,0,0-.33,0,.34.34,0,0,0-.56.1c-.27.68-.46,1.39-.7,2.09s-.5,1.38-.78,2.07c-.55,1.36-1.16,2.71-1.84,4a.53.53,0,1,0,.95.47,40.44,40.44,0,0,0,1.75-4.2,30.25,30.25,0,0,0,1.07-3.51c.64,3.45,1,6.95,1.51,10.41.06.39.74.36.71,0a68.84,68.84,0,0,0-1.47-9.58A35.79,35.79,0,0,0,161,51a30.65,30.65,0,0,0,3.64,4.55A.58.58,0,0,0,165.45,54.82Z" style="fill:#fd875e"/><path d="M247.57,274.41c-.14-1.25-.31-2.51-.54-3.8a39.22,39.22,0,0,1-.7-8.92c.16-2.88,1.45-5.25,2.38-7.93a19.14,19.14,0,0,0,1.06-6.8,5.69,5.69,0,0,1,.17-2.14A17.13,17.13,0,0,1,251,243c1-2-.18-4.61.77-6.66a1.44,1.44,0,0,0,.25-.9c-.16-.79-1.35-.53-2-.07-6.36,4.47-11.46,9.84-11.78,18a44.31,44.31,0,0,0,1.37,11.22c.42,1.92.9,3.84,1.32,5.77.34,1.5.31,4,1,5.31-5.69-10.64-12.92-21.55-8.46-34.22,1.31-3.73,4-7.79,3.73-11.86a15.07,15.07,0,0,0-.95-3.72c-.39-1.15-.79-2.3-1.19-3.45a1.52,1.52,0,0,0-.38-.68c-.57-.48-1.4.1-1.88.67-2.27,2.68-4.15,5.83-6.19,8.7-5.57,7.84-4.56,17-1.59,25.68,2.56,7.46,8.06,13.56,10.39,21.13a7.21,7.21,0,0,1-4.09-2.31,5.94,5.94,0,0,0-3.75-3c-2.58-1.11-3.82-3.8-5.62-5.81a33.69,33.69,0,0,0-6.51-6c-3.84-2.52-8.65-3.94-13.1-2.76.49,1.31,1.79,2.09,2.91,2.93a33.43,33.43,0,0,1,4.37,4.21c3.94,4.27,7.27,8.86,12.22,11.91,3.11,1.92,6,4.22,8.95,6.35a19.87,19.87,0,0,0,16.37,3.64,1.22,1.22,0,0,0,.53-.2,1.24,1.24,0,0,0,.3-1A98.85,98.85,0,0,0,247.57,274.41Z" style="fill:#fdc5a9"/><path d="M122.19,281a11.5,11.5,0,0,0-5.23-2.36,16.31,16.31,0,0,0-6-.2,8.13,8.13,0,0,0-3.7,1.36c-7.12-5.77-17-8.91-26.08-9.3A51,51,0,0,0,76,263.86a87.48,87.48,0,0,0,11.17-1.32,16.51,16.51,0,0,0,8.09-3.37c.5-.41.15-1.12-.34-1.3-3.1-1.14-6.78-.35-9.91.37a38.61,38.61,0,0,0-10.41,4.2,34.18,34.18,0,0,0-9.85-7,.49.49,0,0,0-.49.84,105.31,105.31,0,0,1,9.18,7.37c.13.28.26.56.38.85-.78,1.32-.82,3.13-1.1,4.62-.56,3-1.06,6-1.33,9-.66,7.13,1.44,14.33.12,21.38-.11.59.78,1.07,1,.44l.06-.14h0a54.5,54.5,0,0,0,4.52-18.44c.3-4.91.2-10.6-1.67-15.37a.49.49,0,0,0,.13-.12l.52.57a48.07,48.07,0,0,1,8.19,13.59c.42,1.07.79,2.16,1.13,3.26a24.47,24.47,0,0,0-2.67,4.44,41.78,41.78,0,0,0-2,4.09,36.74,36.74,0,0,0-2.66,10.72c-.09.94,1.21.91,1.5.2,2.13-5.15,4.83-10.23,6.88-15.44a51.8,51.8,0,0,1-.52,23.1c-3.11-.51-6.45,1.3-9,3-.71.46-1.48,1.29-1.06,2a1.57,1.57,0,0,0,.67.55,5.43,5.43,0,0,0,4.53.1,7.61,7.61,0,0,0-1.4,3c-.22,1-.09,2.24.83,2.63a2.07,2.07,0,0,0,2.28-.94,11.58,11.58,0,0,1,1.59-2.13A18.26,18.26,0,0,0,85,323a2.13,2.13,0,0,0,.93,1.48,1.54,1.54,0,0,0,1.91-.91,4.43,4.43,0,0,0,.17-2.32,8.36,8.36,0,0,0,3.39,3.65,1.05,1.05,0,0,0,.7.19c.44-.1.56-.67.57-1.12a11.28,11.28,0,0,0-.56-3.69A5.32,5.32,0,0,0,95.35,323a.88.88,0,0,0,.66,0,.87.87,0,0,0,.31-.66,8,8,0,0,0-1.16-4.62,15.42,15.42,0,0,0-8-7,47,47,0,0,0,.93-24.18,39.83,39.83,0,0,0,4.16,3.08,9,9,0,0,0,5.64,1.84.85.85,0,0,0,.59-1.43,16.46,16.46,0,0,0-11.08-6.16,47.21,47.21,0,0,0-1.67-4.81,52.29,52.29,0,0,0-3.87-7.54,59.29,59.29,0,0,1,12.66,3.1,67.91,67.91,0,0,1,11.62,6.16,17.61,17.61,0,0,0-2.58,5.68,31.62,31.62,0,0,0-1.18,6.75,6.82,6.82,0,0,0,.3,3.11,2.31,2.31,0,0,0,2.24,1.59c1.37-.13,2.12-1.45,2.47-2.8a2.36,2.36,0,0,0,1,1.09,1.82,1.82,0,0,0,2-.18,2,2,0,0,0,.53-.73,6.28,6.28,0,0,0,.36-.94,3.78,3.78,0,0,0,.12-.83,3,3,0,0,0,1.93.43,2.59,2.59,0,0,0,1.59-.78,3,3,0,0,0,.71-1.85,3.77,3.77,0,0,0,0-.67c1.07.62,2.21.95,3,.21,1.18-1.08.7-3-.13-4.53,1.56.5,3.47.64,4.54-.84A3.47,3.47,0,0,0,122.19,281ZM92.93,258.94c-4.34,2.69-10,2.48-15.06,3.09C82.42,260,88.33,258.06,92.93,258.94ZM73,295.72c.09-4.06-.6-8.1-.63-12.21a56.84,56.84,0,0,1,.77-9.3c.24-1.58.53-3.14.84-4.71a31.33,31.33,0,0,1,.52-3.14C77.74,275.53,76.33,286.57,73,295.72Z" style="fill:#fd875e"/><path d="M106.83,281.57a.16.16,0,0,0-.32,0c-.08,3-.31,6-.18,9a.34.34,0,0,0,.68,0C107.14,287.56,106.91,284.57,106.83,281.57Z" style="fill:#fdbe8f"/><path d="M111.7,287.88a32.89,32.89,0,0,1-4-6.46c-.11-.27-.54-.15-.43.11a25.46,25.46,0,0,0,3.69,6.92C111.3,288.85,112,288.32,111.7,287.88Z" style="fill:#fdbe8f"/><path d="M114.92,280.89c-2.08-.37-4.18-.66-6.26-1-.32-.05-.45.42-.14.49,2.06.44,4.11.95,6.17,1.39C115.25,281.86,115.48,281,114.92,280.89Z" style="fill:#fdbe8f"/><path d="M92,318a19.59,19.59,0,0,0-2.79-3.91c-.55-.62-1.18-1.16-1.74-1.77-1-1.11-1.64-1-3.12-.66a9.06,9.06,0,0,0-1.61.57,8.66,8.66,0,0,0-2.73,2c-.34.39.21,1,.58.58a10.92,10.92,0,0,1,2.5-1.93,9.11,9.11,0,0,1,1.42-.65c.33-.12.66-.23,1-.32l-.51.67a12.59,12.59,0,0,0-.93,1.54,19.64,19.64,0,0,0-1.41,3.22c-.14.44.55.63.69.19a26.88,26.88,0,0,1,1.29-3.21A21.75,21.75,0,0,1,86,311.84l0,0c.06.57.08,1.14.12,1.71s.06,1.23,0,1.84a26.31,26.31,0,0,1-.37,3.76c-.1.59.79.86.91.25a16.85,16.85,0,0,0,.32-4c0-.66-.08-1.32-.17-2,0-.3-.11-.59-.17-.87a35.6,35.6,0,0,1,4.51,5.92A.4.4,0,0,0,92,318Z" style="fill:#fdbe8f"/><path d="M95.24,96.19c0-.31-.46-.19-.5.07-.12,1,0,2.09-.08,3.12s-.13,2.08-.24,3.12a47.68,47.68,0,0,1-1.15,6.27,45.24,45.24,0,0,1-2,5.93c-.79,1.92-1.74,3.75-2.56,5.65a25.87,25.87,0,0,0-.92,2.46,9.06,9.06,0,0,1,.25-2.37A44.34,44.34,0,0,1,90,115.63a27,27,0,0,0,1.8-10.43.23.23,0,0,0-.45,0,30,30,0,0,1-2,10.76,25.24,25.24,0,0,0-1.85,5,12.34,12.34,0,0,0,0,3.27c0,.15-.07.31-.1.47l0-.07c-2.55-10-5.47-20-8.6-29.87l-1.38-4.28c-.48-1.46-.89-3-1.47-4.37-.11-.27-.53-.17-.45.12.34,1.31.84,2.59,1.26,3.87s.85,2.58,1.26,3.87q1.22,3.78,2.38,7.57,2.36,7.74,4.47,15.55c.4,1.46.78,2.92,1.17,4.38-.44-1-.89-1.93-1.37-2.87a50.56,50.56,0,0,0-4.46-6.94c-.17-.22-.55,0-.38.23a68.14,68.14,0,0,1,4.43,6.83c.87,1.63,1.64,3.31,2.38,5,.1.4.21.8.32,1.21-.55-.51-1.09-1-1.6-1.58a28.8,28.8,0,0,1-2.39-3c-1.45-2.06-2.71-4.25-4-6.38a51.6,51.6,0,0,0-4.58-6.32,63.26,63.26,0,0,0-6-6c-2.32-2.05-4.7-4.08-7.2-5.9-.25-.18-.56.22-.33.42,2.12,1.87,4.37,3.57,6.5,5.43a68.3,68.3,0,0,1,6,5.82,47.6,47.6,0,0,1,4.81,6.47c1.37,2.15,2.65,4.36,4.12,6.44a21.87,21.87,0,0,0,4.9,5.39.83.83,0,0,1,0,.15,2.59,2.59,0,0,1-.75-.5,10.54,10.54,0,0,0-1-.86,13.17,13.17,0,0,1-2.33-1.8c-1.08-1.24-1.64-2.87-3.12-3.73a.26.26,0,0,0-.26.44c1.5,1,2,2.84,3.28,4,.73.71,1.66,1.16,2.44,1.8.48.38,1.47,1.59,2.12,1.23s.77-1.41,1.12-2,.92-1.43,1.37-2.16a7.78,7.78,0,0,0,1.29-3.36c0-.27-.39-.27-.42,0a8.68,8.68,0,0,1-1.38,3.43,19,19,0,0,0-1.5,3c0-.17,0-.34,0-.51a26.68,26.68,0,0,1,1.26-3.92c.79-1.89,1.73-3.72,2.51-5.62a46.88,46.88,0,0,0,3.24-12c.15-1.17.25-2.34.32-3.52A16.28,16.28,0,0,0,95.24,96.19Z" style="fill:#fff"/><path d="M36.59,41.65h0Z" style="fill:#93ca9f"/><path d="M63.59,37.68a2.58,2.58,0,0,0-2.23-.82,2.83,2.83,0,0,0-2.29,1.51,3,3,0,0,0-.31,1.2,43.59,43.59,0,0,0-12.67,4c.06-.13.12-.26.19-.39.37-.81.72-1.64,1-2.47s.62-1.72.88-2.6c.06-.21.11-.42.17-.63a2,2,0,0,0,1.22-.36,2.58,2.58,0,0,0,1-1.88,2.22,2.22,0,0,0-.75-1.88A2.31,2.31,0,0,0,47.42,33a1.88,1.88,0,0,0-1,1.09,1.92,1.92,0,0,0-.36,1.8,2.42,2.42,0,0,0,1.25,1.36c0,.14-.06.28-.1.42-.22.83-.46,1.66-.71,2.48s-.54,1.62-.84,2.42c-.14.36-.29.72-.45,1.07-.06.14-.12.3-.19.45a53.69,53.69,0,0,0-8.43,5.41h0a12.76,12.76,0,0,0,.4-3,19.76,19.76,0,0,0-.09-2.55c0-.1,0-.2,0-.3l.13,0a2.15,2.15,0,0,0,1.1-1.77,2.08,2.08,0,0,0-3.31-1.68,1.94,1.94,0,0,0-.62,2.36,1.56,1.56,0,0,0,.27.4,2,2,0,0,0,.38.44,2.1,2.1,0,0,0,1,.45c.09.76.16,1.52.18,2.29a13.71,13.71,0,0,1-.14,2.48c-.09.62-.23,1.22-.36,1.83a64.38,64.38,0,0,0-9.22,9.38,12.31,12.31,0,0,0-1.17-5.28,2.36,2.36,0,0,0,.55-2.5,2.1,2.1,0,0,0-2.46-1.36,2,2,0,0,0-1.66,2.27,2.16,2.16,0,0,0,1.53,1.66,2.38,2.38,0,0,0,1.18.28,15.43,15.43,0,0,1,.6,1.46,10.85,10.85,0,0,1,.61,4.51,88.57,88.57,0,0,0-5.28,7.59A8,8,0,0,0,20,66.8a11.07,11.07,0,0,0-1.17-3c-.05-.08-.11-.15-.15-.23s0,0,0,0a1.83,1.83,0,0,0-.32-2.63,1.91,1.91,0,0,0-2.77.33,1.8,1.8,0,0,0,.44,2.59,2,2,0,0,0,1.74.11l.14,0a10.59,10.59,0,0,1,.89,1.62,10.35,10.35,0,0,1,.62,2,6,6,0,0,1,.17,1.79c-.29.49-.59,1-.87,1.45-.57,1-1.12,2-1.66,3s-1.08,1.82-1.58,2.75L15,77.62A10,10,0,0,0,14.08,74c-.18-.44-.39-.87-.6-1.29a1.89,1.89,0,0,0,.38-2,2.18,2.18,0,0,0-2.35-1.38A1.89,1.89,0,0,0,10,71.59a1.56,1.56,0,0,0,.62.86.81.81,0,0,0,.12.14,2.12,2.12,0,0,0,2,.49,12.5,12.5,0,0,1,1.67,5.49,63,63,0,0,0-3,6.26.49.49,0,0,0,.18.6.23.23,0,0,0,.38.14.51.51,0,0,0,.53-.28c.66-1.29,1.22-2.63,1.84-3.94a.17.17,0,0,0,.16-.06A10.15,10.15,0,0,1,18,78.63a9.93,9.93,0,0,1,2-.72c.27-.06.57-.13.87-.18v0a.2.2,0,0,0,0,.07,1.82,1.82,0,0,0,.2.55.81.81,0,0,0,.45.36,1.79,1.79,0,1,0,1-3.2,1.82,1.82,0,0,0-1.57,1.28,7.86,7.86,0,0,0-1.06.19,10.28,10.28,0,0,0-2.23.89A9.39,9.39,0,0,0,15,80c.51-1,1-2.07,1.54-3.09.69-1.34,1.34-2.7,2-4l.24-.44c.38-.67.76-1.35,1.15-2A12.52,12.52,0,0,0,21.44,70a12,12,0,0,1,1.76-.39,10,10,0,0,1,2.68,0,1.35,1.35,0,0,0,.54,1.2,2.27,2.27,0,0,0,3,.11,2,2,0,0,0-1.25-3.11,1.9,1.9,0,0,0-2.05,1,11.27,11.27,0,0,0-2.9.07,9,9,0,0,0-1.9.5,7.14,7.14,0,0,0-1,.44,83.79,83.79,0,0,1,5.71-8.35c.47,0,.95-.13,1.42-.18a11,11,0,0,1,1.81-.05,8.59,8.59,0,0,1,2.65.52l0,.16a1.78,1.78,0,0,0-.23.75,1.85,1.85,0,0,0,1.09,1.76,2.27,2.27,0,0,0,3.07-2.58,2.05,2.05,0,0,0-3.36-1c-.36-.1-.73-.21-1.1-.28a10.57,10.57,0,0,0-1.93-.22,10.3,10.3,0,0,0-1.92.16,7.78,7.78,0,0,0-.85.19,67.09,67.09,0,0,1,8.86-9.13c.47.34,1.27.2,1.82.27a9.21,9.21,0,0,1,1.86.4,8.22,8.22,0,0,1,2.23,1.13,1.92,1.92,0,0,0-.09.95,1.89,1.89,0,0,0,.09.34s0,0,0,.06,0,.14.07.21a2,2,0,1,0,1.68-3,1.82,1.82,0,0,0-1.14.45,9.61,9.61,0,0,0-2.44-1.22,9.12,9.12,0,0,0-2.14-.42c-.25,0-.59,0-.93,0a53,53,0,0,1,9-5.89.2.2,0,0,0,.24.08c.3-.12.69.08,1,.18l1.12.4A21.15,21.15,0,0,1,50,46.4a18.19,18.19,0,0,1,1.9,1.12l.29.21a2.47,2.47,0,0,0-.09.52,2.42,2.42,0,0,0,3.15,2.36,2.49,2.49,0,0,0,1.55-1.7,2.25,2.25,0,0,0-.71-2.24,2,2,0,0,0-1.3-.49l-.17,0a1.89,1.89,0,0,0-1.4.11,2,2,0,0,0-.32.25l-.37-.24a19.5,19.5,0,0,0-2.38-1.18,14.87,14.87,0,0,0-2.42-.79,6.63,6.63,0,0,0-.89-.16,42.33,42.33,0,0,1,12.08-3.72,2.77,2.77,0,0,0,.22.46,2.4,2.4,0,0,0,2.52,1.6,2.37,2.37,0,0,0,1.21-.41,3.11,3.11,0,0,0,1-1.38A3,3,0,0,0,63.59,37.68Z" style="fill:#93ca9f"/><path d="M253.42,297.63c-.13-.54-.28-1.08-.44-1.61a33.32,33.32,0,0,0-1.15-3.22,30,30,0,0,0-1.43-3,15.45,15.45,0,0,0-1.46-2.22,0,0,0,0,1,0,0,71.5,71.5,0,0,1-2.89-7.44,52.41,52.41,0,0,1-1.66-7.63,92.13,92.13,0,0,1-.57-16.77c.12-3.21.34-6.41.56-9.62,0-.33-.48-.32-.51,0-1.06,11.22-2,22.63,1,33.65a36.71,36.71,0,0,0,2.34,6.49c-2.31-3.32-4.92-6.47-7.29-9.62-5.74-7.59-10.56-16.21-11.54-25.84a31.25,31.25,0,0,1,2.39-16.15c.09-.21-.22-.39-.32-.18-4.13,8.9-3.31,19.09.34,28a61.36,61.36,0,0,0,7,12.45c2.62,3.66,5.5,7.13,8.09,10.81l.07.1a14.27,14.27,0,0,0-1.33-.75,20.91,20.91,0,0,0-3.33-1.26c-2.46-.73-5-1.2-7.24-2.48a47.1,47.1,0,0,1-6.24-4.66l-6.49-5.28c-2.45-2-4.89-4-7.38-6-.46-.36-1.13.27-.66.67,4.33,3.63,8.77,7.14,13.17,10.7a73.23,73.23,0,0,0,6.18,4.78,22,22,0,0,0,6.88,2.68,30.6,30.6,0,0,1,4.09,1.24,23.93,23.93,0,0,1,3.1,1.42,39.14,39.14,0,0,1,5.79,12.33.36.36,0,0,0,.61.15.4.4,0,0,0,.51-.3A3.46,3.46,0,0,0,253.42,297.63Z" style="fill:#fd875e"/><path d="M-12.94,86.22s-.05,0-.08.09.18.28.28.42a.24.24,0,0,1,0,.29c2.23,3.35,4.3,6.8,6.25,10.31A23.54,23.54,0,0,1-.18,78.17l.42-.55A.52.52,0,0,1,1,77.53a.72.72,0,0,1,.42.82c0,.11,0,.22-.07.33.92,4.1.44,8.39-.32,12.48a61.89,61.89,0,0,1-3.95,13.06c.09.2.2.4.3.6q1.6,3.34,3.06,6.76a9.85,9.85,0,0,1,1.06,2.54c.39,1,.78,2,1.15,2.94a106.82,106.82,0,0,1,4.11,12.82c.11.45-.53.57-.68.16-1.59-4.47-3.11-9-4.86-13.37-9.78.59-18.45-7.21-20.45-16.52a.59.59,0,0,1,.74-.69c4.34,1.46,8.75,3,12.57,5.55a22.7,22.7,0,0,1,3.23,2.64c-.39-.85-.77-1.71-1.19-2.56a.55.55,0,0,1-.42-.32A22.51,22.51,0,0,1-5.45,102q-3.3-6.36-7.18-12.39A5.33,5.33,0,0,1-15,92.45,11.49,11.49,0,0,1-20.4,94c-7,.55-14.84-1-20.35-5.6a.61.61,0,0,1,.15-1c4.91-2.18,10.08-4.15,15.51-4.29a20.51,20.51,0,0,1,6.7.91,17,17,0,0,1,2.85,1.18,138.52,138.52,0,0,0-11.14-14,25.18,25.18,0,0,1-2.68,2.88,25.3,25.3,0,0,1-20.33,6.29.52.52,0,0,1-.41-.78,17,17,0,0,1,5-5,39.62,39.62,0,0,1,6.84-4.13c2.75-1.23,6.29-2.17,9.44-1.63q-3.15-3.28-6.52-6.34c-1.45-1.31-2.94-2.57-4.44-3.81a28.4,28.4,0,0,1-3.32,4.74A28.3,28.3,0,0,1-63.3,73a.54.54,0,0,1-.49-.68,17.9,17.9,0,0,1,3.71-5.59,35.07,35.07,0,0,1,9.92-6.9,22.17,22.17,0,0,1,5.42-1.93,10.81,10.81,0,0,1,3.67-.1,124.1,124.1,0,0,0-11.62-8.26A18.5,18.5,0,0,1-55.07,55C-59.92,62.41-68.8,65.5-77.38,65.09a.6.6,0,0,1-.55-.77,14.88,14.88,0,0,1,3.11-5.84A33.38,33.38,0,0,1-64.89,51c3-1.59,6.46-2.95,9.89-2.82q-3.82-2.27-7.8-4.24a9.74,9.74,0,0,1-2.41.35,18,18,0,0,1-3.44-.18A19.48,19.48,0,0,1-75,42a19.62,19.62,0,0,1-9-10.38l-.34-.41c-.42-.53.18-1.46.8-1l.08,0A59,59,0,0,0-77.09,32a23.83,23.83,0,0,1,5.71,2.31A23.82,23.82,0,0,1-63,42.38l.51.25c2.45,1.2,4.85,2.5,7.21,3.88a24.28,24.28,0,0,1-6.29-23.86.49.49,0,0,1,.81-.19,42,42,0,0,1,5.09,5.81,20.49,20.49,0,0,1,2.9,6.82,60.11,60.11,0,0,1,1.27,7.17,19.76,19.76,0,0,1-.18,6.42l.63.39a123.19,123.19,0,0,1,11.54,8.36,23.22,23.22,0,0,1-1.32-2.31,31.4,31.4,0,0,1,1-30,.6.6,0,0,1,1,0A42.14,42.14,0,0,1-36,32.53a42.67,42.67,0,0,1,1.48,13.68,41.68,41.68,0,0,1-1,6.85c-.49,2.21-1.42,4.44-1.2,6.74a130.19,130.19,0,0,1,9.44,9.06l.35-.08A22.41,22.41,0,0,1-29,63.25c-2.18-8.74.5-18,5.37-25.3a.47.47,0,0,1,.8,0,37,37,0,0,1,2.1,7.14,36.15,36.15,0,0,1-4.78,25.34.27.27,0,0,1-.07.08,136,136,0,0,1,9.09,11.09,18.9,18.9,0,0,1-.67-1.77,23.73,23.73,0,0,1,8-25.73.68.68,0,0,1,1.06.17,23.08,23.08,0,0,1,2,7C-5.11,70.15-8.48,78.72-12.94,86.22ZM-24.42,62.65a57.92,57.92,0,0,0,1.29-7.52,55,55,0,0,0-.09-12.63c-.85,4.18-1.66,8.37-2.2,12.6-.31,2.45-.55,4.91-.65,7.38-.08,2-.16,4-.09,6C-25.54,66.52-24.9,64.61-24.42,62.65Zm2.29-19.11c.13,1,.24,2,.3,3a53.89,53.89,0,0,1-.61,12.1c-.22,1.36-.49,2.75-.81,4.12A36.13,36.13,0,0,0-22.13,43.54Zm-4.66,24a44.77,44.77,0,0,1-.16-4.92c.07-2.56.3-5.11.62-7.64.66-5.1,1.7-10.14,2.74-15.17a.37.37,0,0,1,.29-.29l-.09-.26a37.65,37.65,0,0,0-2.94,5.54A29.51,29.51,0,0,0-26.79,67.5ZM-81,32.08A106,106,0,0,0-65.43,41a23.07,23.07,0,0,0-6.73-5.86,23,23,0,0,0-5.71-2.28C-78.9,32.57-79.93,32.34-81,32.08Zm17,11.25,0,0-.36-.16a47,47,0,0,1-10.71-4.27A32.23,32.23,0,0,1-81.83,34a18.45,18.45,0,0,0,7.34,7.21,18.7,18.7,0,0,0,6.2,2,20.28,20.28,0,0,0,3.11.18C-64.77,43.39-64.36,43.36-63.95,43.33ZM-76,62.53a80.61,80.61,0,0,1,20.1-13.35,18,18,0,0,0-3.83.78,36,36,0,0,0-10.4,5.75A19.05,19.05,0,0,0-76,62.53Zm21.31-11A40.6,40.6,0,0,1-74,63.85,25,25,0,0,0-61.9,60,19.33,19.33,0,0,0-54.7,51.55Zm-.25-1.43A86.87,86.87,0,0,0-74.52,62.81,38.88,38.88,0,0,0-54.95,50.12Zm1.76-9.29c.2.89.4,1.77.61,2.65,0-.51-.09-1-.16-1.55a61,61,0,0,0-1.19-6.56,20.16,20.16,0,0,0-2.79-6.66q-.62-.9-1.29-1.74a34.15,34.15,0,0,1,3.17,7.55C-54.2,36.6-53.69,38.72-53.19,40.83Zm-6.87-15.44a98.63,98.63,0,0,0,6.66,19.5c0-.17-.06-.35-.1-.51-.23-1-.46-2-.7-3-.47-2.08-1-4.15-1.58-6.19A40.05,40.05,0,0,0-60.06,25.39Zm6.19,21.43a83,83,0,0,1-7.24-21.66,23.71,23.71,0,0,0,.76,11.61A24.4,24.4,0,0,0-53.87,46.82ZM-61,69.57c5.38-4.6,11.75-8,18.19-10.91-3.5.32-6.93,2-9.85,3.79A27.89,27.89,0,0,0-61,69.57Zm.3,1.28A44.8,44.8,0,0,0-50.7,66a40.44,40.44,0,0,0,5.15-3.86c.73-.64,1.45-1.3,2.17-1.94C-49.48,63.25-55.5,66.38-60.68,70.85ZM-41.9,60.26c-1.06.93-2.1,1.9-3.17,2.83a42.73,42.73,0,0,1-5.16,3.82,41.78,41.78,0,0,1-11.53,4.85.63.63,0,0,1-.26.07l-.14,0a.26.26,0,0,1-.2,0l0,.09A26.86,26.86,0,0,0-41.9,60.26Zm3.53-31.14c1.43,9.07.91,18.32.6,27.48l.06.38c.27-1.4.72-2.79,1-4.17A41.12,41.12,0,0,0-38.37,29.12Zm-.87.52a90.47,90.47,0,0,0-.33,13c.13,2.74.39,5.48.78,8.2.11.82.27,1.64.41,2.46,0-3.6.08-7.2.05-10.8A86,86,0,0,0-39.24,29.64Zm-.51,22.16a87.24,87.24,0,0,1-.31-23.61,28,28,0,0,0-1.78,4.7,30.81,30.81,0,0,0-.61,13.64,29.84,29.84,0,0,0,2,6.61c.41,1,.88,1.88,1.38,2.78C-39.36,54.55-39.55,53.15-39.75,51.8Zm-5,24a56.74,56.74,0,0,1,6.72-3.44,57,57,0,0,1,7.26-2.58,10.31,10.31,0,0,0-1.11,0,19.46,19.46,0,0,0-6.24,1.85,42.59,42.59,0,0,0-6.25,3.84ZM-28,71a48.93,48.93,0,0,1-8.75,5.28c-1.62.78-3.27,1.48-4.93,2.15-.81.33-1.63.71-2.47,1A24.56,24.56,0,0,0-28,71Zm.52-.61a3.07,3.07,0,0,0-.25-.26,56.84,56.84,0,0,0-9.91,3.32,79,79,0,0,0-10.81,6.06h0l1.3.07a.47.47,0,0,1,.23-.27,20,20,0,0,1,2.49-1c.84-.31,1.68-.64,2.51-1,1.58-.63,3.16-1.28,4.71-2a53.48,53.48,0,0,0,9.1-5c.21-.15.45.07.46.29C-27.61,70.58-27.54,70.51-27.48,70.43Zm13.21,16.68,0-.06a22,22,0,0,0-4.49-2,21.21,21.21,0,0,0-6.44-.72c-4.85.16-9.49,1.85-13.91,3.77A22.68,22.68,0,0,0-30.4,92a35.41,35.41,0,0,0,9.3.74A11.36,11.36,0,0,0-16,91.53a4.74,4.74,0,0,0,1.85-1.76,44.39,44.39,0,0,1-21.06-.59c-.57-.15-.75-1.12-.14-1.36A31.5,31.5,0,0,1-23,85.61a31.58,31.58,0,0,1,5.57.64,30,30,0,0,1,3,.79Zm-1.06,1.17a30.25,30.25,0,0,0-17.05.06,42.8,42.8,0,0,0,17.57.07Zm8.2,17.49a36.35,36.35,0,0,0-6.79-3.43,68.26,68.26,0,0,1,6.25,4.41c1.53,1.22,3,2.49,4.45,3.83,1,.94,2.05,1.9,3,2.92A18.4,18.4,0,0,0-7.13,105.77Zm3,5.7q-2.07-2-4.28-3.76c-1.58-1.28-3.2-2.48-4.87-3.62A44.23,44.23,0,0,0-9.72,108a45.71,45.71,0,0,0,8.41,6.39C-2.25,113.41-3.17,112.41-4.16,111.47Zm4.4,4.41,0,0s0,0-.06,0a49.52,49.52,0,0,1-5.35-3,41.92,41.92,0,0,1-4.61-3.67A44.8,44.8,0,0,1-14,104.66c-.59-.72-1.17-1.58-1.85-2.29l-1.82-1.13a20.21,20.21,0,0,0,7.36,10.67A22.66,22.66,0,0,0,.24,115.88ZM.69,81.56C-.74,87.88-2,94.22-2.88,100.64A62,62,0,0,0-.19,91.2,37.7,37.7,0,0,0,.69,81.56Zm-4.92,18.73A172.15,172.15,0,0,1-.49,80.57,21.27,21.27,0,0,0-5.36,93,32.75,32.75,0,0,0-4.23,100.29ZM-8.08,59.11c0,.88,0,1.76,0,2.64a60.8,60.8,0,0,1-2.1,11.81c-.51,2-1.06,3.9-1.59,5.86-.34,1.22-.61,2.51-.95,3.76.74-1.35,1.45-2.72,2.07-4.13C-7.93,72.8-6.61,65.77-8.08,59.11Zm-1.36-1.88A56.42,56.42,0,0,0-14,70.69a32.49,32.49,0,0,0-.52,7.75,29.19,29.19,0,0,0,.44,3.73c0,.11.05.22.07.33.32-1.33.73-2.64,1.08-3.91C-11,71.56-9.08,64.53-9.44,57.23Zm-5.94,22.14c-.77-7.89,1.79-15.37,5-22.47a22.26,22.26,0,0,0-3.15,3.7,21.9,21.9,0,0,0-3.76,12.84A23.26,23.26,0,0,0-14.61,83.6,21.65,21.65,0,0,1-15.38,79.37Z" style="fill:#6e9488"/><path d="M18.31,189.69a1.79,1.79,0,0,1,.16.78,1.28,1.28,0,0,1,0,.19,2.14,2.14,0,0,1-.09.34,1.56,1.56,0,0,1-.26.45,3.31,3.31,0,0,1-.26.27,3.28,3.28,0,0,1-.31.2,2.15,2.15,0,0,1-.5.19,1.45,1.45,0,0,1-.51,0A2.22,2.22,0,0,1,16,192H16c-.86,1.28-1.94,2.45-2.9,3.64-1.13,1.41-2.26,2.83-3.4,4.24-2.33,2.85-4.7,5.66-7,8.48-.18.22-.54,0-.36-.25,2.25-3,4.48-5.92,6.77-8.85,1.14-1.46,2.3-2.92,3.46-4.38.88-1.11,1.72-2.32,2.69-3.38a1.6,1.6,0,0,1-.26-.38,2.24,2.24,0,0,1-.11-.34l0-.12a1.87,1.87,0,0,1,.1-.91,2.12,2.12,0,0,1,.5-.72,1.78,1.78,0,0,1,.75-.38,1.82,1.82,0,0,1,1.15.1A2,2,0,0,1,18.31,189.69Z" style="fill:#6e9488"/><path d="M-1.14,169.86a2,2,0,0,0-1.25-.08A2.28,2.28,0,0,0-3,170a2.44,2.44,0,0,0-.65.55,1.86,1.86,0,0,0-.41,1.18,2.15,2.15,0,0,0,.46,1.36l.09.09a.67.67,0,0,0,.06.12,1.3,1.3,0,0,0,.46.5,2.12,2.12,0,0,0,.48.23h.09q-1.28,13.51-2.55,27c-.25,2.74-.5,5.48-.7,8.23a.26.26,0,0,0,.52.05c1.14-9.62,2-19.27,2.94-28.91.21-2.11.42-4.23.62-6.34a2.25,2.25,0,0,0,1.16-.5,2,2,0,0,0,.7-2A2.43,2.43,0,0,0-1.14,169.86Z" style="fill:#6e9488"/><path d="M12.7,172a2.31,2.31,0,0,0-.94-.1,1.81,1.81,0,0,0-.86.35,1.72,1.72,0,0,0-.72,1.32s0,.11,0,.16a1.36,1.36,0,0,0,0,.35,2.47,2.47,0,0,0,.21.65,1.63,1.63,0,0,0,.31.42c-.38.74-.8,1.46-1.18,2.18-.57,1.07-1.12,2.14-1.65,3.22q-1.62,3.25-3.08,6.59A132.32,132.32,0,0,0-.38,201c-.1.32.39.5.5.18,1.61-4.62,3.38-9.19,5.37-13.67,1-2.21,2-4.41,3.12-6.58.57-1.13,1.16-2.25,1.75-3.36.35-.64.69-1.31,1.06-1.95a1.88,1.88,0,0,0,1,.11,2.06,2.06,0,0,0,1.33-.91,1.86,1.86,0,0,0-1-2.84Z" style="fill:#6e9488"/><path d="M-13.57,185.26a2.4,2.4,0,0,1,.5-.71,1.27,1.27,0,0,1,1.24-.29,1.85,1.85,0,0,1,1,1.09,14.81,14.81,0,0,1,.83,2.84c.74,3.38,1.49,6.76,2.12,10.15q.48,2.67,1,5.35c.23,1.25,1.34,3.91.93,5a159.49,159.49,0,0,1-.57-18.12c.1-2.09.22-4.18.51-6.23.2-1.4,0-4.06,1.7-4.71,3-1.15,2.67,4.84,2.67,6,0,2.81-.38,5.55-.6,8.33-.35,4.52-.51,9.35-1.58,13.71C-1.89,199.82,0,192,2.43,184.26c.41-1.34,1.94-8,4.55-7.37,1,.28,1.19,1.47,1.07,2.32-.7,5.21-2.38,10-4.05,14.88a146,146,0,0,1-5.51,15c2.35-5,4.7-10,7.48-14.82a17.67,17.67,0,0,1,4.74-5.85,1.23,1.23,0,0,1,1.35-.23,1,1,0,0,1,.34,1c-.28,2.78-1.85,5.18-3.38,7.51L.32,209.89a58.65,58.65,0,0,1,8.56-9.8,15.21,15.21,0,0,1,5.73-3.68,2.09,2.09,0,0,1,2.06.24,1.31,1.31,0,0,1-.05,1.61c-2.75,4.9-7.87,9.61-12.64,13.11-2.33,1.72-6.39,4.17-9.86,1.77-3-2.12-4.18-9.6-5.15-12.49a55.21,55.21,0,0,1-2.19-8.37C-13.53,190.46-14.45,187.12-13.57,185.26Z" style="fill:#fdbdbd"/><path d="M-8.42,209.42a3.14,3.14,0,0,0-.84,2.75,5.83,5.83,0,0,0,2.07,4.09c0,.12,0,.23-.06.32a16.47,16.47,0,0,0-.41,3.13,20.65,20.65,0,0,0,.84,6.49,20,20,0,0,0,3.11,6.26,17.92,17.92,0,0,0,5.24,4.95c.83.48,1.73-.59.93-1.21a24.49,24.49,0,0,1-4.82-4.61,19.65,19.65,0,0,1-3-5.87,19.4,19.4,0,0,1-.86-6.06A25.22,25.22,0,0,1-6,216.91c1.79.66,3.88-.06,5.12-2.82C-1.56,213.52-7.86,209-8.42,209.42Z" style="fill:#6e9488"/><path d="M276.07,22.22a59.47,59.47,0,0,1-4.18-10.3A39.35,39.35,0,0,1,271.53-5a22,22,0,0,1,1.72-6c1.26-2.53,3.37-4.44,3.94-7.41.26-1.36.2-3,1-3.93,2.47-3.08,10.71,7.12,12.1,9.73,5.65,10.69-2.71,18-2.47,27.8.17,6.56,3.71,13.53,3.48,20,.09-2.44,1.24-4.14.83-6.75s-1.08-5.48-1.37-8.26a23,23,0,0,1,.12-7.87c.65-2.56,2.17-4.53,3.34-6.73s2-4.6,3.52-6.38c2.21-2.57,5.81-3.74,6.9-7.25l3.54,6.52c1.6,3,3.27,6.14,3.29,9.24,0,4.74-3.68,7.44-5.16,11.5-1.11,3-1,7-2.86,9.36-2.18,2.81-6,3.13-7.6,6.65a34.32,34.32,0,0,0-1.44,3.4c-.34,1,.12,3.86-.57,4.38a1.6,1.6,0,0,1-1.09.12c-3.1-.26-5.22,2.28-7.8,3.57a3.82,3.82,0,0,1-2.14.48,9.83,9.83,0,0,1-2.26-.79c-2.34-.95-4.8-1-7-2.42-3.27-2-5.19-6.16-8-9.1a17.23,17.23,0,0,1-2.68-3,20.11,20.11,0,0,1-1.31-3.27c-1.2-3.19-3.53-5.87-5.72-8.49-.39-.47-.82-1.18-.52-1.56s.54-.19.85-.1c3.73,1,6.88,5,10.57,6.53A15.52,15.52,0,0,1,269.28,26c1.93,1.25,2.86,3.66,4.35,5.42s3.1,2.76,4.23,4.84a2.92,2.92,0,0,0,.48.72,2.21,2.21,0,0,0,.55.37,13.73,13.73,0,0,0,3.21,1.51c.84.2,1-.54,2.08.14-2.46-5.38-5.17-10.7-7.75-16Z" style="fill:#fdbdbd"/><path d="M260.55,21.44c-.26.16.06.7.32.54S260.82,21.28,260.55,21.44Z" style="fill:#e87f7f"/><path d="M12.81,22.22a59.43,59.43,0,0,1-4.17-10.3A39.35,39.35,0,0,1,8.28-5,21.63,21.63,0,0,1,10-11c1.26-2.53,3.37-4.44,3.93-7.41.26-1.36.21-3,1-3.93,2.47-3.08,10.71,7.12,12.09,9.73,5.66,10.69-2.71,18-2.46,27.8.17,6.56,3.71,13.53,3.48,20,.08-2.44,1.24-4.14.83-6.75s-1.09-5.48-1.38-8.26a23.23,23.23,0,0,1,.12-7.87C28.25,9.7,29.78,7.73,31,5.53s2-4.6,3.52-6.38c2.21-2.57,5.81-3.74,6.89-7.25,1.18,2.17,2.36,4.35,3.55,6.52,1.6,3,3.26,6.14,3.29,9.24,0,4.74-3.69,7.44-5.17,11.5-1.11,3-1,7-2.85,9.36-2.18,2.81-6,3.13-7.61,6.65a34.27,34.27,0,0,0-1.43,3.4c-.34,1,.11,3.86-.58,4.38a1.58,1.58,0,0,1-1.09.12c-3.1-.26-5.21,2.28-7.8,3.57a3.77,3.77,0,0,1-2.13.48,9.67,9.67,0,0,1-2.26-.79c-2.35-.95-4.81-1-7.06-2.42-3.26-2-5.19-6.16-8-9.1a17.7,17.7,0,0,1-2.69-3,21,21,0,0,1-1.3-3.27C-2.95,25.31-5.27,22.63-7.47,20c-.39-.47-.81-1.18-.51-1.56s.53-.19.85-.1c3.73,1,6.87,5,10.57,6.53A15.89,15.89,0,0,1,6,26c1.93,1.25,2.86,3.66,4.35,5.42s3.09,2.76,4.23,4.84a2.88,2.88,0,0,0,.47.72,2.41,2.41,0,0,0,.55.37,13.92,13.92,0,0,0,3.21,1.51c.84.2,1.06-.54,2.09.14-2.47-5.38-5.17-10.7-7.76-16Z" style="fill:#fdbdbd"/><path d="M12.82,6.57a.24.24,0,0,0-.3.06.35.35,0,0,0,0,.37.38.38,0,0,0,.33.18.24.24,0,0,0,.2-.23A.38.38,0,0,0,12.82,6.57Z" style="fill:#e87f7f"/><path d="M12.69.42h0c-.14-.08-.31-.08-.36.07h0a.37.37,0,0,0,.28.47h0c.16,0,.24-.13.23-.28h0A.38.38,0,0,0,12.69.42Z" style="fill:#e87f7f"/><path d="M16.94,7a.19.19,0,0,0-.2.12.38.38,0,0,0,0,.21.4.4,0,0,0,.3.34.23.23,0,0,0,.24-.28.65.65,0,0,0-.08-.22A.36.36,0,0,0,16.94,7Z" style="fill:#e87f7f"/><path d="M8.73,40.28a.21.21,0,0,0-.3.17v.06a.4.4,0,0,0,.23.38.2.2,0,0,0,.28-.17l0-.06A.39.39,0,0,0,8.73,40.28Z" style="fill:#e87f7f"/><path d="M12.28,13.59c-.1-.09-.26-.11-.32,0a.83.83,0,0,0-.07.13.35.35,0,0,0,.14.4.21.21,0,0,0,.33-.07l0-.08A.36.36,0,0,0,12.28,13.59Z" style="fill:#e87f7f"/><path d="M6.31,28c-.1-.09-.26-.11-.32,0l-.08.12a.38.38,0,0,0,.14.4.21.21,0,0,0,.33-.07.25.25,0,0,0,0-.07A.35.35,0,0,0,6.31,28Z" style="fill:#e87f7f"/><path d="M21.82,8.35c-.27.15.05.69.31.53S22.08,8.19,21.82,8.35Z" style="fill:#e87f7f"/><path d="M15.72,13.64l0,0a.34.34,0,0,0,.3.5h0c.16,0,.21-.24.11-.41S15.82,13.52,15.72,13.64Z" style="fill:#e87f7f"/><path d="M20.82,14.45c-.26.15.05.67.31.51S21.07,14.29,20.82,14.45Z" style="fill:#e87f7f"/><path d="M19.38,19.34a.24.24,0,0,0-.37,0,.35.35,0,0,0,0,.42l.09.08a.22.22,0,0,0,.28,0,.26.26,0,0,0,.05-.29A.64.64,0,0,0,19.38,19.34Z" style="fill:#e87f7f"/><path d="M16.61,22.38c-.27.16.05.7.32.54S16.87,22.22,16.61,22.38Z" style="fill:#e87f7f"/><path d="M21.25,28.25c-.27.16.05.71.32.55S21.52,28.09,21.25,28.25Z" style="fill:#e87f7f"/><path d="M29.62,27.22h0Z" style="fill:#e87f7f"/><path d="M29.52,26.63a.19.19,0,0,0-.2.12.29.29,0,0,0,0,.31.3.3,0,0,0,.28.16.18.18,0,0,0,.19-.12.33.33,0,0,0,0-.3A.32.32,0,0,0,29.52,26.63Z" style="fill:#e87f7f"/><path d="M29.31,26.76h0v0Z" style="fill:#e87f7f"/><path d="M30.56,12.28a.29.29,0,0,0-.13.05c-.11.05-.13.25,0,.39s.25.22.36.14a.28.28,0,0,0,.1-.09A.33.33,0,0,0,30.56,12.28Z" style="fill:#e87f7f"/><path d="M34.46,13.55a.25.25,0,0,0-.17.43c.09.14.25.22.36.15s.08-.05.1-.09A.33.33,0,0,0,34.46,13.55Z" style="fill:#e87f7f"/><path d="M45.85,2.87a.26.26,0,0,0-.17.43c.09.14.26.22.37.15a.41.41,0,0,0,.1-.09A.33.33,0,0,0,45.85,2.87Z" style="fill:#e87f7f"/><path d="M31.48,24.31H31.4c-.12,0-.18.17-.15.3a.35.35,0,0,0,.28.27l.08,0c.16,0,.26-.15.22-.31A.35.35,0,0,0,31.48,24.31Z" style="fill:#e87f7f"/><path d="M30.07,17.94c-.27.16.05.7.32.54S30.33,17.78,30.07,17.94Z" style="fill:#e87f7f"/><path d="M33.56,18.4c-.27.16,0,.69.32.54S33.82,18.24,33.56,18.4Z" style="fill:#e87f7f"/><path d="M36.67,21.83c-.26.16.06.7.32.54S36.94,21.68,36.67,21.83Z" style="fill:#e87f7f"/><path d="M32,6.73c-.26.16.06.7.32.54S32.23,6.57,32,6.73Z" style="fill:#e87f7f"/><path d="M35.54,10.68c-.26.16.06.7.32.54S35.81,10.52,35.54,10.68Z" style="fill:#e87f7f"/><path d="M36.42,2.58c-.27.16,0,.71.32.55S36.69,2.43,36.42,2.58Z" style="fill:#e87f7f"/><path d="M43.86,10.75c-.26.16,0,.68.31.52S44.12,10.6,43.86,10.75Z" style="fill:#e87f7f"/><path d="M37.37,16.54c-.26.15.05.67.31.52S37.63,16.38,37.37,16.54Z" style="fill:#e87f7f"/><path d="M38.62,9.65c-.27.16.05.7.32.54S38.88,9.49,38.62,9.65Z" style="fill:#e87f7f"/><path d="M11.18,33.3a.33.33,0,0,0-.14-.1.23.23,0,0,0-.25,0c-.1.09,0,.32.05.43l.06,0a.23.23,0,0,0,.33,0A.35.35,0,0,0,11.18,33.3Z" style="fill:#e87f7f"/><path d="M23.08,3.65c-.26.16.05.69.31.53S23.34,3.5,23.08,3.65Z" style="fill:#e87f7f"/><path d="M4.29,34.26c-.27.16,0,.7.32.54S4.55,34.1,4.29,34.26Z" style="fill:#e87f7f"/><path d="M1,24.24c-.26.15.05.67.31.52S1.29,24.08,1,24.24Z" style="fill:#e87f7f"/><path d="M4.48,31.62c-.25.15,0,.67.31.52S4.74,31.47,4.48,31.62Z" style="fill:#e87f7f"/><path d="M11.25,37.82c-.27.16.05.69.31.54S11.51,37.67,11.25,37.82Z" style="fill:#e87f7f"/><path d="M6.47,36.07a.44.44,0,0,0-.2,0,.24.24,0,0,0-.09.26.4.4,0,0,0,.21.26.4.4,0,0,0,.15,0,.21.21,0,0,0,.22-.26C6.74,36.24,6.61,36.07,6.47,36.07Z" style="fill:#e87f7f"/><path d="M23.73,23.8c-.27.16.05.7.32.54S24,23.65,23.73,23.8Z" style="fill:#e87f7f"/><path d="M21.68.06c.14-.3-.33-.66-.47-.36S21.54.36,21.68.06Z" style="fill:#e87f7f"/><path d="M17.39.58c-.26.16.05.69.32.53S17.66.42,17.39.58Z" style="fill:#e87f7f"/><path d="M1.19,30.16c-.27.16.05.69.32.54S1.45,30,1.19,30.16Z" style="fill:#e87f7f"/><path d="M204.67-18a31.38,31.38,0,0,0-10.77,4.4c-1.71,1-3.38,2.15-5.05,3.24-.89.57-1.76,1.15-2.63,1.75-3.51-2.54-12.33,1.49-15.51,3-1.85.88-3.82,2.12-4.29,4.13a1,1,0,0,0,0,.66,1.11,1.11,0,0,0,.85.47c4.72.84,9.25-1.95,13.24-4.62-2.91,2.49-5.72,5.38-6.83,9a1.63,1.63,0,0,0,.17,1.66c.5.45,1.28.18,1.87-.15a17,17,0,0,0,6.88-7.37c-1.31,3.32-2.22,6.91-.73,10a2.26,2.26,0,0,0,.86,1.06,1.8,1.8,0,0,0,2-.38,4.65,4.65,0,0,0,1.09-1.89,30,30,0,0,0,1.79-12.74,4.82,4.82,0,0,0-.46-1.76l2.22-1.36c1.7-1.06,3.4-2.14,5.13-3.17a32.59,32.59,0,0,1,10.53-4.48C206.11-16.63,205.67-18.16,204.67-18Z" style="fill:#fdc5a9"/><path d="M247.57,11.16c-.14-1.26-.31-2.52-.54-3.8a39.31,39.31,0,0,1-.7-8.92c.16-2.88,1.45-5.26,2.38-7.93a19.21,19.21,0,0,0,1.06-6.8,5.68,5.68,0,0,1,.17-2.14A17.26,17.26,0,0,1,251-20.22c1-2-.18-4.61.77-6.66a1.44,1.44,0,0,0,.25-.9c-.16-.78-1.35-.53-2-.07-6.36,4.47-11.46,9.85-11.78,18a44.26,44.26,0,0,0,1.37,11.22c.42,1.93.9,3.85,1.32,5.78.34,1.5.31,4,1,5.31C236.26,1.79,229-9.12,233.49-21.79c1.31-3.72,4-7.79,3.73-11.85a15.26,15.26,0,0,0-.95-3.73c-.39-1.15-.79-2.3-1.19-3.45a1.52,1.52,0,0,0-.38-.68c-.57-.47-1.4.11-1.88.67-2.27,2.69-4.15,5.84-6.19,8.71-5.57,7.83-4.56,17-1.59,25.68C227.6,1,233.1,7.12,235.43,14.68a7.16,7.16,0,0,1-4.09-2.31,11.24,11.24,0,0,0-2.05-2.24,11.29,11.29,0,0,0-1.7-.76c-2.58-1.1-3.82-3.79-5.62-5.8a33.69,33.69,0,0,0-6.51-6c-3.84-2.52-8.65-3.94-13.1-2.77.49,1.31,1.79,2.1,2.91,2.94a32.72,32.72,0,0,1,4.37,4.2c3.94,4.28,7.27,8.86,12.22,11.92,3.11,1.92,6,4.21,8.95,6.34a19.88,19.88,0,0,0,16.37,3.65,1.22,1.22,0,0,0,.53-.2,1.25,1.25,0,0,0,.3-1A98.76,98.76,0,0,0,247.57,11.16Z" style="fill:#fdc5a9"/><path d="M122.19,17.77A11.41,11.41,0,0,0,117,15.4a16.31,16.31,0,0,0-6-.2,8.14,8.14,0,0,0-3.7,1.37c-7.12-5.77-17-8.91-26.08-9.3A50.38,50.38,0,0,0,76,.61,89.32,89.32,0,0,0,87.18-.71a16.52,16.52,0,0,0,8.09-3.38c.5-.4.15-1.11-.34-1.3C91.83-6.53,88.15-5.74,85-5A38,38,0,0,0,74.61-.81a34.41,34.41,0,0,0-9.85-7,.49.49,0,0,0-.49.85A107.11,107.11,0,0,1,73.45.42c.13.28.26.57.38.85-.78,1.33-.82,3.14-1.1,4.62-.56,3-1.06,6-1.33,9-.66,7.12,1.44,14.33.12,21.37-.11.6.78,1.08,1,.44l.06-.13h0a54.44,54.44,0,0,0,4.52-18.44c.3-4.91.2-10.6-1.67-15.36l.13-.12c.17.19.35.37.52.57a48,48,0,0,1,8.19,13.58c.42,1.08.79,2.17,1.13,3.26a24.86,24.86,0,0,0-2.67,4.45,39.68,39.68,0,0,0-2,4.09,36.67,36.67,0,0,0-2.66,10.71c-.09,1,1.21.92,1.5.2,2.13-5.15,4.83-10.22,6.88-15.44A51.8,51.8,0,0,1,86,47.19c-3.11-.5-6.45,1.3-9,3-.71.45-1.48,1.29-1.06,2a1.55,1.55,0,0,0,.67.54,5.36,5.36,0,0,0,4.53.1,7.68,7.68,0,0,0-1.4,3c-.22,1-.09,2.24.83,2.64a2.07,2.07,0,0,0,2.28-.94,11.66,11.66,0,0,1,1.59-2.14A18.12,18.12,0,0,0,85,59.77a2.13,2.13,0,0,0,.93,1.49,1.54,1.54,0,0,0,1.91-.91A4.44,4.44,0,0,0,88,58a8.36,8.36,0,0,0,3.39,3.65,1,1,0,0,0,.7.18c.44-.1.56-.66.57-1.12a11.26,11.26,0,0,0-.56-3.68,5.34,5.34,0,0,0,3.25,2.71.65.65,0,0,0,1-.66,8,8,0,0,0-1.16-4.62,15.38,15.38,0,0,0-8-7,47,47,0,0,0,.93-24.18,39.72,39.72,0,0,0,4.16,3.07,9,9,0,0,0,5.64,1.85.85.85,0,0,0,.59-1.43,16.42,16.42,0,0,0-11.08-6.16,45.58,45.58,0,0,0-1.67-4.81,51.77,51.77,0,0,0-3.87-7.54,58.7,58.7,0,0,1,12.66,3.1,67.86,67.86,0,0,1,11.62,6.15,17.76,17.76,0,0,0-2.58,5.69A31.53,31.53,0,0,0,102.35,30a6.85,6.85,0,0,0,.3,3.12,2.32,2.32,0,0,0,2.24,1.59c1.37-.13,2.12-1.45,2.47-2.81a2.34,2.34,0,0,0,1,1.1,1.82,1.82,0,0,0,2-.18,2,2,0,0,0,.53-.74,6.17,6.17,0,0,0,.36-.93,3.78,3.78,0,0,0,.12-.83,3,3,0,0,0,1.93.43,2.59,2.59,0,0,0,1.59-.78,3.06,3.06,0,0,0,.71-1.85,3.94,3.94,0,0,0,0-.68c1.07.63,2.21,1,3,.22,1.18-1.09.7-3-.13-4.54,1.56.51,3.47.64,4.54-.84S123.4,18.87,122.19,17.77ZM92.93-4.31c-4.34,2.68-10,2.47-15.06,3.09C82.42-3.25,88.33-5.19,92.93-4.31ZM73,32.47c.09-4.06-.6-8.11-.63-12.21A57,57,0,0,1,73.18,11c.24-1.57.53-3.14.84-4.7.14-.76.22-2.07.52-3.15C77.74,12.28,76.33,23.32,73,32.47Z" style="fill:#fd875e"/><path d="M106.83,18.32a.16.16,0,0,0-.32,0c-.08,3-.31,6-.18,9a.34.34,0,0,0,.68,0C107.14,24.3,106.91,21.31,106.83,18.32Z" style="fill:#fdbe8f"/><path d="M111.7,24.63a32.67,32.67,0,0,1-4-6.47c-.11-.26-.54-.15-.43.12A25.4,25.4,0,0,0,111,25.19C111.3,25.6,112,25.06,111.7,24.63Z" style="fill:#fdbe8f"/><path d="M114.92,17.63c-2.08-.36-4.18-.66-6.26-1-.32-.05-.45.41-.14.48,2.06.45,4.11.95,6.17,1.4C115.25,18.61,115.48,17.73,114.92,17.63Z" style="fill:#fdbe8f"/><path d="M92,54.77a20,20,0,0,0-2.79-3.92c-.55-.61-1.18-1.15-1.74-1.76-1-1.11-1.64-1-3.12-.66a9.06,9.06,0,0,0-1.61.57A8.37,8.37,0,0,0,80,51c-.34.39.21,1,.58.58a10.65,10.65,0,0,1,2.5-1.93A10.19,10.19,0,0,1,84.48,49c.33-.12.66-.22,1-.31l-.51.66A13.4,13.4,0,0,0,84,50.91a20.12,20.12,0,0,0-1.41,3.23c-.14.44.55.63.69.19a26.88,26.88,0,0,1,1.29-3.21A21.88,21.88,0,0,1,86,48.58s0,0,0,0c.06.57.08,1.14.12,1.71s.06,1.23,0,1.84a26.31,26.31,0,0,1-.37,3.76c-.1.59.79.85.91.25a16.85,16.85,0,0,0,.32-4c0-.67-.08-1.33-.17-2,0-.29-.11-.58-.17-.87a36.09,36.09,0,0,1,4.51,5.93A.4.4,0,0,0,92,54.77Z" style="fill:#fdbe8f"/><path d="M253.42,34.38c-.13-.54-.28-1.08-.44-1.62a33.13,33.13,0,0,0-1.15-3.21,29.13,29.13,0,0,0-1.43-3,16,16,0,0,0-1.46-2.22,0,0,0,0,1,0,0A70.65,70.65,0,0,1,246,16.88a52.28,52.28,0,0,1-1.66-7.62,92.13,92.13,0,0,1-.57-16.77c.12-3.21.34-6.42.56-9.62,0-.34-.48-.33-.51,0-1.06,11.21-2,22.63,1,33.64a36.81,36.81,0,0,0,2.34,6.5c-2.31-3.32-4.92-6.48-7.29-9.62-5.74-7.6-10.56-16.21-11.54-25.84a31.28,31.28,0,0,1,2.39-16.16c.09-.21-.22-.39-.32-.18-4.13,8.9-3.31,19.1.34,28a61.7,61.7,0,0,0,7,12.46c2.62,3.65,5.5,7.12,8.09,10.8l.07.11a12.31,12.31,0,0,0-1.33-.75,22,22,0,0,0-3.33-1.27c-2.46-.73-5-1.19-7.24-2.47a46.31,46.31,0,0,1-6.24-4.67q-3.24-2.64-6.49-5.27c-2.45-2-4.89-4-7.38-6-.46-.37-1.13.27-.66.66C217.6,6.49,222,10,226.44,13.57a71.1,71.1,0,0,0,6.18,4.77A22.07,22.07,0,0,0,239.5,21a32.1,32.1,0,0,1,4.09,1.23,25.43,25.43,0,0,1,3.1,1.43A39.09,39.09,0,0,1,252.48,36a.36.36,0,0,0,.61.16.4.4,0,0,0,.51-.3A3.44,3.44,0,0,0,253.42,34.38Z" style="fill:#fd875e"/></pattern></defs><title>Asset 1</title><g id="Layer_2" data-name="Layer 2"><g id="Capa_5" data-name="Capa 5"><ellipse cx="577.54" cy="683.74" rx="577.54" ry="683.74" style="opacity:0.14;fill:url(#New_Pattern)"/></g></g></svg>