<svg xmlns="http://www.w3.org/2000/svg" viewBox="0 0 311.1 133.63"><title>Asset 1</title><g id="Layer_2" data-name="Layer 2"><g id="Capa_1" data-name="Capa 1"><path d="M27.86.87H36.3V38.7H27.86L9.83,15V38.7H1.39V.87h7.9L27.86,25.22Z" style="fill:#17847c"/><path d="M55.63,28.93a7.43,7.43,0,0,0,11.34,0,11.29,11.29,0,0,0,2.08-7.17V.87h8.44V22q0,8.24-4.54,12.64a16,16,0,0,1-11.64,4.41,16.07,16.07,0,0,1-11.67-4.44Q45.07,30.22,45.07,22V.87h8.44V21.76A11.12,11.12,0,0,0,55.63,28.93Z" style="fill:#17847c"/><path d="M113.54.87V8.39H94.71v7.79h16.94v7.2H94.71v7.85h19.43V38.7H86.26V.87Z" style="fill:#17847c"/><path d="M135.63,25,145.27.87h9.14L139.2,38.7h-7.14L116.85.87H126Z" style="fill:#17847c"/><path d="M189.87,33.48a20.63,20.63,0,0,1-28.26,0,18.71,18.71,0,0,1-5.73-13.94A18.71,18.71,0,0,1,161.61,5.6a20.63,20.63,0,0,1,28.26,0,18.72,18.72,0,0,1,5.74,13.94A18.72,18.72,0,0,1,189.87,33.48ZM187,19.57a12.38,12.38,0,0,0-3.25-8.64,10.72,10.72,0,0,0-16,0,12.42,12.42,0,0,0-3.24,8.64,12.33,12.33,0,0,0,3.24,8.61,10.78,10.78,0,0,0,16,0A12.29,12.29,0,0,0,187,19.57Z" style="fill:#17847c"/><path d="M116.22,81.52A12.47,12.47,0,0,0,126.4,76.6l5.41,5.57q-6.44,7.26-15.18,7.25a19.76,19.76,0,0,1-14.4-5.52A18.65,18.65,0,0,1,96.57,70a18.83,18.83,0,0,1,5.77-14,19.38,19.38,0,0,1,14.1-5.63A20,20,0,0,1,132,57.38l-5.25,5.95a12.3,12.3,0,0,0-10-5,11.6,11.6,0,0,0-8.15,3.12,10.85,10.85,0,0,0-3.38,8.39,11.46,11.46,0,0,0,3.19,8.47A10.54,10.54,0,0,0,116.22,81.52Z" style="fill:#7e62b2"/><path d="M166.78,74.43a14.39,14.39,0,0,1-4.38,10.66,16.18,16.18,0,0,1-22,0,15.17,15.17,0,0,1,0-21.35,16.09,16.09,0,0,1,22,0A14.49,14.49,0,0,1,166.78,74.43Zm-22.62,0a8.33,8.33,0,0,0,2,5.82,7.12,7.12,0,0,0,10.39,0,8.37,8.37,0,0,0,2-5.82,8.48,8.48,0,0,0-2-5.85,7.08,7.08,0,0,0-10.39,0A8.44,8.44,0,0,0,144.16,74.43Zm10.28-18.51H146.7l6.87-9.58,8.4,3.51Z" style="fill:#7e62b2"/><path d="M202.46,56.11q5.4,4.95,5.41,13.77t-5.28,14Q197.31,89,186.49,89H173.55V51.15h13.37Q197,51.15,202.46,56.11Zm-6.2,22.49q3.11-2.92,3.11-8.5t-3.11-8.58q-3.12-3-9.56-3H182v23h5.36Q193.14,81.52,196.26,78.6Z" style="fill:#7e62b2"/><path d="M215.18,51.15h8.44V89h-8.44Z" style="fill:#7e62b2"/><path d="M257.51,69.72H266V83.15q-5.62,6.27-15.59,6.27a19.26,19.26,0,0,1-14-5.52A18.65,18.65,0,0,1,230.76,70a18.83,18.83,0,0,1,5.77-14,19.15,19.15,0,0,1,13.91-5.63,20.56,20.56,0,0,1,14.16,5.36L260.21,62a16.85,16.85,0,0,0-4.68-3.06,12.57,12.57,0,0,0-4.63-.84,11.06,11.06,0,0,0-8.12,3.28,11.61,11.61,0,0,0-3.3,8.63,11.72,11.72,0,0,0,3.17,8.58,10.2,10.2,0,0,0,7.55,3.22,14.51,14.51,0,0,0,7.31-1.68Z" style="fill:#7e62b2"/><path d="M305.36,83.77a20.63,20.63,0,0,1-28.26,0,18.72,18.72,0,0,1-5.74-13.94,18.72,18.72,0,0,1,5.74-13.94,20.63,20.63,0,0,1,28.26,0,18.72,18.72,0,0,1,5.74,13.94A18.72,18.72,0,0,1,305.36,83.77Zm-2.87-13.91a12.36,12.36,0,0,0-3.25-8.64,10.72,10.72,0,0,0-16,0,13.06,13.06,0,0,0,0,17.24,10.76,10.76,0,0,0,16,0A12.25,12.25,0,0,0,302.49,69.86Z" style="fill:#7e62b2"/><path d="M7.89,96.78a7.32,7.32,0,0,1-5.48-2.6A9.14,9.14,0,0,1,0,87.72,8.77,8.77,0,0,1,2.35,81.4,7.33,7.33,0,0,1,7.84,79,6.58,6.58,0,0,1,13,81.16V72.68H17.8V96.52H13V94.24A6.27,6.27,0,0,1,7.89,96.78Zm-3-8.87a4.78,4.78,0,0,0,1.26,3.42A3.89,3.89,0,0,0,9,92.67a3.65,3.65,0,0,0,2.84-1.34,5,5,0,0,0,1.18-3.44,5.22,5.22,0,0,0-1.18-3.5A3.62,3.62,0,0,0,9,83a3.77,3.77,0,0,0-2.93,1.42A5.18,5.18,0,0,0,4.85,87.91Z" style="fill:#17847c"/><path d="M36,94a9.68,9.68,0,0,1-6.86,2.76,9.09,9.09,0,0,1-6.51-2.43A8.47,8.47,0,0,1,20,87.85a8.37,8.37,0,0,1,2.62-6.49A8.79,8.79,0,0,1,28.81,79a8.92,8.92,0,0,1,6.06,2.15A7.39,7.39,0,0,1,37.36,87v2.57H24.76a3.48,3.48,0,0,0,1.48,2.32,4.8,4.8,0,0,0,2.83.89,5.55,5.55,0,0,0,4.18-1.7ZM31.32,83.76a3.67,3.67,0,0,0-2.43-.83,4.36,4.36,0,0,0-2.62.87,3.33,3.33,0,0,0-1.38,2.34h7.59A3.46,3.46,0,0,0,31.32,83.76Z" style="fill:#17847c"/><rect x="0.19" y="63.52" width="89.48" height="2.79" style="fill:#17847c"/><rect x="207.87" y="27.95" width="98.49" height="2.79" style="fill:#17847c"/><path d="M53,96.52H48.18V72.68H53Z" style="fill:#17847c"/><path d="M72.25,96.52H67.72V94.43a5.66,5.66,0,0,1-4.61,2.35,6.85,6.85,0,0,1-4.61-1.59A5.31,5.31,0,0,1,56.64,91a4.49,4.49,0,0,1,1.92-4,9.21,9.21,0,0,1,5.27-1.32h3.6v-.1c0-1.84-1-2.76-2.92-2.76a7.93,7.93,0,0,0-2.65.5,8.4,8.4,0,0,0-2.37,1.24l-2.15-3.12A12.88,12.88,0,0,1,65.12,79a8,8,0,0,1,5.14,1.57q2,1.58,2,5ZM67.4,89.93V89.1h-3c-1.93,0-2.89.6-2.89,1.8a1.66,1.66,0,0,0,.69,1.43,3.35,3.35,0,0,0,2,.5A3.54,3.54,0,0,0,66.42,92,2.59,2.59,0,0,0,67.4,89.93Z" style="fill:#17847c"/><path d="M89.67,91.14a5.06,5.06,0,0,1-1.88,4.1A7.27,7.27,0,0,1,83,96.78a12.77,12.77,0,0,1-4-.69,11.82,11.82,0,0,1-3.76-2l2.12-3a9.26,9.26,0,0,0,5.75,2.09,2.65,2.65,0,0,0,1.48-.37,1.14,1.14,0,0,0,.55-1,1.41,1.41,0,0,0-.76-1.13,8.58,8.58,0,0,0-2.18-1c-1-.3-1.68-.56-2.19-.77A13.43,13.43,0,0,1,78.29,88a4,4,0,0,1-2-3.61,4.73,4.73,0,0,1,1.93-3.9,7.84,7.84,0,0,1,5-1.51,10.88,10.88,0,0,1,6.11,2l-1.8,3.21a8,8,0,0,0-4.49-1.54c-1.48,0-2.23.41-2.23,1.22A1.17,1.17,0,0,0,81.54,85a13.73,13.73,0,0,0,2.34.9c1.1.35,1.87.61,2.33.79a12,12,0,0,1,1.66.85A3.94,3.94,0,0,1,89.67,91.14Z" style="fill:#17847c"/><path d="M121.48,102.17v6.1H107.06V115h13.7v6.09h-13.7v12.19h-6.94v-31.1Z" style="fill:#7e62b2"/><path d="M147.82,133.27l-2.9-6.72h-13L129,133.27h-7.39l13.44-31.1h6.72l13.43,31.1Zm-9.39-21.84-3.92,9h7.79Z" style="fill:#7e62b2"/><path d="M186.66,113.69l-8.41,17h-4.14l-8.36-17v19.58H158.8v-31.1h9.39l8,17.09,8.05-17.09h9.35v31.1h-6.94Z" style="fill:#7e62b2"/><path d="M201.25,102.17h6.94v31.1h-6.94Z" style="fill:#7e62b2"/><path d="M215.84,133.27v-31.1h6.94v24.92H236v6.18Z" style="fill:#7e62b2"/><path d="M241.11,102.17h6.94v31.1h-6.94Z" style="fill:#7e62b2"/><path d="M277.86,133.27,275,126.55h-13L259,133.27h-7.38l13.43-31.1h6.72l13.44,31.1Zm-9.39-21.84-3.91,9h7.78Z" style="fill:#7e62b2"/><path d="M295.9,108.38a2.7,2.7,0,0,0-1,2.18,2.49,2.49,0,0,0,1.22,2.16,22.77,22.77,0,0,0,5.65,1.89,15.73,15.73,0,0,1,6.88,3.27,8.07,8.07,0,0,1,2.45,6.36A8.38,8.38,0,0,1,308,131a12.47,12.47,0,0,1-8.25,2.61,19.12,19.12,0,0,1-13.31-5.48l4.14-5.07q5,4.41,9.3,4.41a4.86,4.86,0,0,0,3-.83,2.62,2.62,0,0,0,1.09-2.22,2.59,2.59,0,0,0-1.15-2.23,15.38,15.38,0,0,0-4.59-1.66c-3.62-.86-6.26-2-7.94-3.36s-2.51-3.55-2.51-6.5a8.05,8.05,0,0,1,3.18-6.83,12.81,12.81,0,0,1,7.94-2.4,19.16,19.16,0,0,1,6.23,1.07,16.68,16.68,0,0,1,5.43,3L307,110.63a13.66,13.66,0,0,0-8.36-3.07A4.18,4.18,0,0,0,295.9,108.38Z" style="fill:#7e62b2"/></g></g></svg>