<svg xmlns="http://www.w3.org/2000/svg" viewBox="0 0 324.22 67.25"><title>Capa 2</title><g id="Layer_2" data-name="Layer 2"><g id="Capa_1" data-name="Capa 1"><g id="Capa_2" data-name="Capa 2"><g id="Capa_1-2" data-name="Capa 1-2"><path d="M24.12,66Q13.34,66,6.68,59.62T0,42.89V41.68A28.71,28.71,0,0,1,2.67,29a19.5,19.5,0,0,1,7.77-8.51,23.53,23.53,0,0,1,12.12-3q9.87,0,15.58,6.13T43.85,40.7v5.67h-29a10.46,10.46,0,0,0,3.42,6.19,10.16,10.16,0,0,0,6.84,2.25Q32,54.81,35.93,50l6.67,7.88a18.67,18.67,0,0,1-7.73,6A26,26,0,0,1,24.12,66Zm-1.65-37.3q-6.42,0-7.62,8.48H29.57v-1.1a7.23,7.23,0,0,0-1.77-5.43,7.11,7.11,0,0,0-5.33-1.92Z" style="fill:#051231"/><path d="M65.1,65.28H50.47v-63H65.1Z" style="fill:#051231"/><path d="M115,14H101V65.28H85.79V14H71.55V2.27h52.67Z" style="fill:#051231"/><path d="M274.06,2.27v41a23.68,23.68,0,0,1-3,12.07,19.3,19.3,0,0,1-8.52,7.77,30.17,30.17,0,0,1-13.13,2.66q-11.44,0-18-5.93T224.7,43.57V2.27h15.19V43.88q.26,10.29,9.55,10.28c3.13,0,5.49-.86,7.1-2.58S259,47.06,259,43.19V2.27Z" style="fill:#051231"/><path d="M319.8,38.54H295.91V53.6h28.22V65.28H280.72v-63h43.5V14H295.91V27.28H319.8Z" style="fill:#051231"/><path d="M163.94,19.56a19.49,19.49,0,0,1,3.72,4.75h0a19.29,19.29,0,0,0-11.32-9.1h0a17.47,17.47,0,0,1,2.41.9A19.57,19.57,0,0,1,163.94,19.56Z" style="fill:#051231"/><path d="M213,51.34a34.62,34.62,0,0,0,2.84-5.72c.41-1.08.77-2.19,1.08-3.32h0A33.6,33.6,0,0,0,167.66,4.51,33.85,33.85,0,0,1,179,15.2h-.09a19.2,19.2,0,0,1,22.46,27.51c-.06.11-.12.22-.19.33s-.16.29-.25.43l-.06.1A19.33,19.33,0,0,1,192,51.25l-.19.08-.3.12-.5.2h-.12l-.48.16h-.11a19.21,19.21,0,0,1-24.15-12.42,18.89,18.89,0,0,1-.91-5.87V33a9.91,9.91,0,0,0,0-1.09h0a15.88,15.88,0,0,0-.55-2.64c-.18-.56-.4-1.11-.63-1.65a14.92,14.92,0,0,0-2.9-4.21,14.71,14.71,0,0,0-4.42-3.06A15.12,15.12,0,0,0,154,19.4a33.6,33.6,0,0,0,6.74,37.88,33.16,33.16,0,0,0,10.84,7.26l.44.18.15.06a33.65,33.65,0,0,0,25-.13h.09l.47-.19.28-.13.26-.11.47-.22h.07a32.7,32.7,0,0,0,3.44-1.87h0c.72-.45,1.42-.93,2.1-1.43L215,64.24l-3.52-10.58c.54-.74,1.06-1.5,1.55-2.28Z" style="fill:#051231"/><path d="M177.56,51.52l-.22-.09Z" style="fill:#051231;fill-rule:evenodd"/><path d="M176.93,51.26l-.21-.09Z" style="fill:#051231;fill-rule:evenodd"/><path d="M160.71,57.36A32.47,32.47,0,0,1,156.35,52a19.2,19.2,0,0,1-22.2-27.83l-3.64-10.94,10.92,3.64a19.31,19.31,0,0,1,15.43-1.52H157l1,.37H158l1,.43.1.05c.32.15.63.31,1,.48l.1.06c.16.08.31.17.46.26h0l.45.27.12.08.42.28h0l.43.3.12.09c.13.09.27.19.4.3h0l.41.33.11.09.39.33h0l.39.35.1.1c.14.12.27.25.4.38l.43.45.12.13c.11.11.21.23.31.34l.12.14.33.4.07.07.38.49a.36.36,0,0,0,.07.1l.29.4.1.14.27.41.07.1c.22.35.44.7.63,1.06h0A19.44,19.44,0,0,1,170,34.67a2.43,2.43,0,0,0,.05.6,14,14,0,0,0,.56,2.63,12.19,12.19,0,0,0,.63,1.65,14.58,14.58,0,0,0,7.31,7.27,14,14,0,0,0,2.76.91h0a33,33,0,0,0,3.12-14.13A33.44,33.44,0,0,0,179,15.21h0l-.24-.35h0l-.41-.6-.08-.11-.42-.58-.06-.07-.42-.55v-.06l-.46-.56-.08-.1c-.15-.19-.31-.37-.47-.55v0c-.15-.18-.31-.35-.46-.52l-.2-.1-.48-.52-.09-.1-.51-.52h0l-.5-.49L174,9.26l-.51-.48-.1-.09-.54-.48h0l-.55-.46-.11-.09-.54-.44-.11-.08L171,6.71h0l-.57-.42-.13-.09-.57-.39-.11-.08L169,5.34h-.08L168.34,5l-.14-.08a33.6,33.6,0,1,0-.56,57.86A32.91,32.91,0,0,1,160.71,57.36Z" style="fill:#051231;fill-rule:evenodd"/><path d="M178.17,51.74h0Z" style="fill:#051231;fill-rule:evenodd"/></g></g></g></g></svg>