<svg xmlns="http://www.w3.org/2000/svg" x="0px" y="0px"
width="50" height="50"
viewBox="0 0 172 172"
style=" fill:#fafafa;"><g fill="none" fill-rule="nonzero" stroke="none" stroke-width="1" stroke-linecap="butt" stroke-linejoin="miter" stroke-miterlimit="10" stroke-dasharray="" stroke-dashoffset="0" font-family="none" font-weight="none" font-size="none" text-anchor="none" style="mix-blend-mode: normal"><path d="M0,172v-172h172v172z" fill="none"></path><g fill="#fafafa"><path d="M106.45023,52.70023l-33.30006,33.29977l33.29985,33.29977c0.93151,0.89968 1.3051,2.23198 0.97716,3.48482c-0.32793,1.25284 -1.30634,2.23125 -2.55918,2.55918c-1.25284,0.32793 -2.58513,-0.04565 -3.48482,-0.97716l-35.83333,-35.83333c-0.67207,-0.67182 -1.04966,-1.58315 -1.04966,-2.53342c0,-0.95027 0.37759,-1.8616 1.04966,-2.53342l35.83333,-35.83333c1.40602,-1.35798 3.64097,-1.33856 5.02318,0.04365c1.38221,1.38221 1.40163,3.61716 0.04365,5.02318z"></path></g></g></svg>