<?xml version="1.0" standalone="no"?>
<!DOCTYPE svg PUBLIC "-//W3C//DTD SVG 20010904//EN"
 "http://www.w3.org/TR/2001/REC-SVG-20010904/DTD/svg10.dtd">
<svg version="1.0" xmlns="http://www.w3.org/2000/svg"
 width="260.000000pt" height="260.000000pt" viewBox="0 0 260.000000 260.000000"
 preserveAspectRatio="xMidYMid meet">
<metadata>
Created by potrace 1.14, written by Peter Selinger 2001-2017
</metadata>
<g transform="translate(0.000000,260.000000) scale(0.100000,-0.100000)"
fill="#000000" stroke="none">
<path d="M1545 2016 c-38 -8 -87 -20 -108 -28 l-39 -14 60 -47 c56 -44 142
-145 164 -193 8 -18 21 -22 79 -26 219 -16 394 -224 376 -448 -8 -104 -40
-173 -113 -246 -106 -105 -220 -145 -350 -124 -208 33 -340 184 -360 410 -12
142 -85 247 -201 289 -46 17 -53 9 -84 -102 -30 -106 -32 -279 -5 -377 58
-213 192 -378 381 -470 202 -98 478 -93 678 13 l59 31 101 -34 c56 -18 107
-35 114 -37 7 -3 -3 42 -26 109 l-38 113 43 57 c80 109 133 308 120 454 -28
317 -250 581 -551 659 -87 22 -218 27 -300 11z"/>
<path d="M762 2000 c-147 -39 -308 -145 -393 -260 -102 -137 -149 -279 -149
-450 0 -210 64 -365 215 -516 105 -106 202 -162 336 -194 131 -31 303 -23 414
20 l29 11 -34 26 c-55 41 -148 140 -175 187 -24 42 -25 42 -105 54 -275 40
-440 317 -340 571 l21 54 -36 113 c-19 61 -35 115 -35 118 0 3 51 -12 114 -34
l114 -40 49 23 c69 31 246 32 314 1 62 -29 115 -78 160 -147 41 -63 55 -111
68 -233 10 -96 39 -161 94 -210 46 -42 119 -79 140 -71 9 3 25 36 37 73 101
329 -52 709 -345 853 -144 71 -339 91 -493 51z"/>
</g>
</svg>
